<?xml version="1.0" standalone="no"?>
<!DOCTYPE svg PUBLIC "-//W3C//DTD SVG 1.1//EN" "http://www.w3.org/Graphics/SVG/1.1/DTD/svg11.dtd" >
<svg>
<metadata>
Created by FontForge 20090914 at Mon Mar 27 18:41:16 2017
 By www-data
TrueType font: Copyright &#194;&#169; 1991, 1994 ParaGraph. All rights reserved. Technical realization by TeamAXis Corp. Hinted with AXisType ToolKit: Copyright &#194;&#169; 1992, 1994 by Dmitry Komissarov.
</metadata>
<defs>
<font id="FreeSetExtraCTT" horiz-adv-x="740" >
  <font-face 
    font-family="FreeSetExtraCTT"
    font-weight="400"
    font-stretch="normal"
    units-per-em="1000"
    panose-1="0 0 0 0 0 0 0 0 0 0"
    ascent="800"
    descent="-200"
    x-height="524"
    cap-height="700"
    bbox="-83 -231.001 1369 926"
    underline-thickness="50"
    underline-position="-75"
    unicode-range="U+0020-U+2122"
  />
<missing-glyph horiz-adv-x="926" 
d="M57 0v926h812v-926h-812zM812 57v812h-698v-812h698z" />
    <glyph glyph-name=".notdef" horiz-adv-x="926" 
d="M57 0v926h812v-926h-812zM812 57v812h-698v-812h698z" />
    <glyph glyph-name="space" unicode=" " horiz-adv-x="233" 
 />
    <glyph glyph-name="exclam" unicode="!" horiz-adv-x="426" 
d="M347 700l-39 -441h-190l-39 441h268zM322 0h-218v187h218v-187z" />
    <glyph glyph-name="quotedbl" unicode="&#x22;" horiz-adv-x="556" 
d="M460 395h-150v305h150v-305zM246 395h-150v305h150v-305z" />
    <glyph glyph-name="numbersign" unicode="#" horiz-adv-x="600" 
d="M562 396h-86l-13 -91h69v-126h-86l-25 -179h-136l25 179h-67l-25 -179h-136l25 179h-69v126h86l13 91h-68v126h86l24 178h136l-24 -178h67l24 178h136l-24 -178h68v-126zM340 396h-67l-13 -91h67z" />
    <glyph glyph-name="dollar" unicode="$" horiz-adv-x="632" 
d="M596 227c0 -52.667 -19.001 -99.501 -57.001 -140.501s-89 -66.5 -153 -76.5v-130h-132v120c-34.667 0 -68.5 2 -101.5 6s-71.833 12.667 -116.5 26v155c30.667 -12 61.5 -21.167 92.5 -27.5s61.167 -9.5 90.5 -9.5c41.333 0 71.666 5.66699 90.999 17
c15.333 8.66699 23 20.667 23 36c0 18 -10.667 32.333 -32 43c-10 5.33301 -32 12.333 -66 21c-59.333 15.333 -102.666 33.666 -129.999 54.999c-44 34 -66 84.667 -66 152c0 59.333 20.833 107.5 62.5 144.5s92.5 55.5 152.5 55.5v118h132v-118
c22.667 0 47.834 -1.66699 75.501 -5s58.167 -9.66602 91.5 -18.999v-157c-30.667 10.667 -60.667 18.5 -90 23.5s-56 7.5 -80 7.5c-35.333 0 -60.333 -6.66699 -75 -20c-10.667 -9.33301 -16 -22.333 -16 -39s10.333 -29 31 -37l67 -17
c67.333 -17.333 116.333 -37.666 147 -60.999c39.333 -30 59 -71 59 -123z" />
    <glyph glyph-name="percent" unicode="%" horiz-adv-x="961" 
d="M936 196c0 -86.667 -26.667 -146.334 -80 -179.001c-31.333 -19.333 -71 -29 -119 -29c-65.333 0 -114.833 17.833 -148.5 53.5s-50.5 87.167 -50.5 154.5c0 86.667 26.667 146.334 80 179.001c31.333 19.333 71 29 119 29c65.333 0 114.833 -17.833 148.5 -53.5
s50.5 -87.167 50.5 -154.5zM769 729l-452 -760h-122l452 760h122zM423 502c0 -86.667 -26.667 -146.334 -80 -179.001c-31.333 -19.333 -71 -29 -119 -29c-65.333 0 -114.833 17.833 -148.5 53.5s-50.5 87.167 -50.5 154.5c0 86.667 26.667 146.334 80 179.001
c31.333 19.333 71 29 119 29c65.333 0 114.833 -17.833 148.5 -53.5s50.5 -87.167 50.5 -154.5zM781 196c0 35.333 -2 59 -6 71c-6 18 -18.667 27 -38 27s-31.5 -7.33301 -36.5 -22s-7.5 -40 -7.5 -76c0 -35.333 2.5 -60.5 7.5 -75.5s17.167 -22.5 36.5 -22.5
s32 8.66699 38 26c4 12 6 36 6 72zM268 502c0 35.333 -2 59 -6 71c-6 18 -18.667 27 -38 27s-31.5 -7.33301 -36.5 -22s-7.5 -40 -7.5 -76c0 -35.333 2.5 -60.5 7.5 -75.5s17.167 -22.5 36.5 -22.5s32 8.66699 38 26c4 12 6 36 6 72z" />
    <glyph glyph-name="ampersand" unicode="&#x26;" horiz-adv-x="963" 
d="M961 0l-334.999 -0.00195312l-43 44c-45.333 -22.667 -91.333 -38.334 -138 -47.001c-32 -6 -67.333 -9 -106 -9c-120.667 0 -207 25 -259 75c-35.333 34 -53 77.667 -53 131c0 38.667 12.5 73.667 37.5 105s59.833 53.333 104.5 66v4c-29.333 16 -53 35.667 -71 59
c-22 28.667 -33 60.334 -33 95.001c0 62 25.667 109 77 141s127 48 227 48c115.333 0 198 -17.333 248 -52c36.667 -25.333 55 -59.666 55 -102.999c0 -32.667 -16 -65.334 -48 -98.001c-34.667 -35.333 -80.334 -61.666 -137.001 -78.999l40 -27
c14.667 -10 33 -23.667 55 -41c15.333 16 27.333 32.333 36 49c5.33301 10.667 9.66602 22.334 12.999 35.001h250c-10.667 -45.333 -28.667 -87.666 -54 -126.999c-21.333 -32.667 -46.666 -62.334 -75.999 -89.001l5 -4l82 -67zM442.001 535.998
c0 13.333 -4.00098 24.666 -12.001 33.999c-12 13.333 -31.333 20 -58 20c-28.667 0 -49.667 -6.66699 -63 -20c-9.33301 -9.33301 -14 -20.666 -14 -33.999c0 -14.667 6.66699 -28.667 20 -42c10.667 -10.667 26.334 -22 47.001 -34l7 -4l13 8c21.333 13.333 35 23 41 29
c12.667 12 19 26.333 19 43zM443 162.998l-135 106.999c-10.667 -8 -19.334 -17.667 -26.001 -29c-8.66699 -14 -13 -28.667 -13 -44c0 -17.333 6.66699 -31.666 20 -42.999c16.667 -14.667 40.334 -22 71.001 -22c18 0 33.5 2.83301 46.5 8.5s25.167 13.167 36.5 22.5z" />
    <glyph glyph-name="quotesingle" unicode="'" horiz-adv-x="316" 
d="M233 393h-150v305h150v-305z" />
    <glyph glyph-name="parenleft" unicode="(" horiz-adv-x="370" 
d="M354 -140h-183c-40.667 66 -72.667 135.667 -96 209c-26.667 82.667 -40 162.667 -40 240c0 66 9 132.333 27 199c22.667 84 59 167.333 109 250h183c-40.667 -74.667 -70.334 -153 -89.001 -235c-16 -70 -24 -141.333 -24 -214c0 -94 13 -184.667 39 -272
c18.667 -61.333 43.334 -120.333 74.001 -177z" />
    <glyph glyph-name="parenright" unicode=")" horiz-adv-x="370" 
d="M335 309c0 -60 -7.33203 -119.665 -21.999 -178.998c-12 -49.333 -29.667 -100.333 -53 -153c-16.667 -38.667 -37 -77.667 -61 -117h-183c29.333 54 53.666 113 72.999 177c26.667 89.333 40 180 40 272c0 75.333 -7.66699 146.666 -23 213.999
c-18.667 81.333 -48.667 159.666 -90 234.999h183c44.667 -74.667 78.5 -150.5 101.5 -227.5s34.5 -150.833 34.5 -221.5z" />
    <glyph glyph-name="asterisk" unicode="*" horiz-adv-x="539" 
d="M499 469l-142 -25l104 -106l-124 -83l-68 130l-72 -130l-123 83l111 107l-145 24l40 148l140 -66l-25 149h151l-23 -149l137 66z" />
    <glyph glyph-name="plus" unicode="+" horiz-adv-x="602" 
d="M554 202h-172v-172h-162v172h-172v162h172v172h162v-172h172v-162z" />
    <glyph glyph-name="comma" unicode="," horiz-adv-x="316" 
d="M295 183l-115 -306h-159l62 306h212z" />
    <glyph glyph-name="hyphen" unicode="-" horiz-adv-x="406" 
d="M358 183h-310v174h310v-174z" />
    <glyph glyph-name="period" unicode="." horiz-adv-x="368" 
d="M293 0h-218v193h218v-193z" />
    <glyph glyph-name="slash" unicode="/" horiz-adv-x="372" 
d="M432 712l-314 -724h-178l314 724h178z" />
    <glyph glyph-name="zero" unicode="0" horiz-adv-x="742" 
d="M719 349c0 -109.333 -30.8311 -196.834 -92.498 -262.501s-146.834 -98.5 -255.501 -98.5c-109.333 0 -195.333 33.667 -258 101c-60 64.667 -90 151.334 -90 260.001c0 112.667 33 202 99 268c63.333 63.333 146.333 95 249 95c105.333 0 189.666 -33.5 252.999 -100.5
s95 -154.5 95 -262.5zM457.002 349.999c0 72 -3.66699 120.668 -11 146.001c-12 40 -37 60 -75 60c-39.333 0 -64.666 -20 -75.999 -60c-6.66699 -23.333 -10 -72 -10 -146c0 -72 3.33301 -120 10 -144c11.333 -41.333 36.666 -62 75.999 -62c38 0 63 20.333 75 61
c7.33301 25.333 11 73.666 11 144.999z" />
    <glyph glyph-name="one" unicode="1" horiz-adv-x="739" 
d="M589 0h-252v454l-155 -112l-72 183l264 175h215v-700z" />
    <glyph glyph-name="two" unicode="2" 
d="M647 0l-554 -0.000976562v197l82 43c90.667 46.667 149.834 84 177.501 112s41.5 57.333 41.5 88c0 28.667 -10 51.334 -30 68.001c-24 20 -59 30 -105 30c-25.333 0 -49.833 -2.16699 -73.5 -6.5s-49.834 -12.5 -78.501 -24.5v183c39.333 8.66699 75.333 14.5 108 17.5
s64 4.5 94 4.5c128 0 219.667 -25 275 -75c42 -38 63 -89.667 63 -155c0 -59.333 -23.833 -115.5 -71.5 -168.5s-119.5 -100.833 -215.5 -143.5l287 -2v-168z" />
    <glyph glyph-name="three" unicode="3" 
d="M646 194c0 -54 -20 -98.3301 -60 -132.997c-56 -48.667 -145.333 -73 -268 -73c-32.667 0 -66.667 2 -102 6s-76 11.667 -122 23v163c29.333 -8.66699 60 -15.834 92 -21.501s60.333 -8.5 85 -8.5c43.333 0 74.333 8.33301 93 25c12 10.667 18 23.334 18 38.001
c0 23.333 -9.66699 40.666 -29 51.999s-46.333 17 -81 17h-90v144h89c35.333 0 61.166 5.83301 77.499 17.5s24.5 25.5 24.5 41.5c0 19.333 -6.33301 34.666 -19 45.999c-19.333 16.667 -51.333 25 -96 25c-25.333 0 -51.333 -2.5 -78 -7.5s-53 -11.5 -79 -19.5v156
c37.333 9.33301 74.5 16.166 111.5 20.499s70.5 6.5 100.5 6.5c118.667 0 205.667 -23 261 -69c41.333 -34.667 62 -77.334 62 -128.001c0 -36.667 -11.667 -69.667 -35 -99s-56.666 -49 -99.999 -59c46.667 -9.33301 82.5 -28.666 107.5 -57.999s37.5 -64.333 37.5 -105z
" />
    <glyph glyph-name="four" unicode="4" 
d="M705 134h-112v-134h-242v134h-321v198l295 366h268v-392h112v-172zM361 296v219l-177 -219h177z" />
    <glyph glyph-name="five" unicode="5" 
d="M650 218c0 -57.333 -18.999 -105.998 -56.999 -145.998c-53.333 -56 -137 -84 -251 -84c-35.333 0 -72 2.16699 -110 6.5s-77.333 12.166 -118 23.499v160c19.333 -5.33301 42.5 -10.333 69.5 -15s53.167 -7 78.5 -7c44.667 0 77.667 8.66699 99 26
c17.333 14 26 32.333 26 55c0 28.667 -12.833 50 -38.5 64s-58.834 21 -99.501 21c-23.333 0 -44.5 -1.33301 -63.5 -4s-39.833 -6.66699 -62.5 -12v394h495v-162h-264v-109l69 3c77.333 0 136 -22.667 176 -68c34 -38.667 51 -87.334 51 -146.001z" />
    <glyph glyph-name="six" unicode="6" 
d="M697 235c0 -72 -27.668 -131.167 -83.001 -177.5s-131 -69.5 -227 -69.5c-103.333 0 -186 31.667 -248 95c-64 65.333 -96 152.333 -96 261c0 106 30 191.667 90 257c68 74 167 111 297 111c30 0 58.5 -1 85.5 -3s66.167 -7.33301 117.5 -16v-161l-19 4
c-33.333 6.66699 -56 11 -68 13c-30.667 4.66699 -60 7 -88 7c-36.667 0 -68 -6.33301 -94 -19c-47.333 -22.667 -71 -63 -71 -121h4c15.333 12 32.333 21.333 51 28c26.667 9.33301 58 14 94 14c74.667 0 135.834 -20.5 183.501 -61.5s71.5 -94.833 71.5 -161.5z
M465.999 232c0 29.333 -8 52.333 -24 69s-36.333 25 -61 25s-45 -8.33301 -61 -25s-24 -39.667 -24 -69s8 -52.333 24 -69s36.333 -25 61 -25s45 8.33301 61 25s24 39.667 24 69z" />
    <glyph glyph-name="seven" unicode="7" 
d="M665 507l-252 -507h-301l298 507h-335v193h590v-193z" />
    <glyph glyph-name="eight" unicode="8" 
d="M701 195c0 -53.333 -20.333 -97.6689 -61 -133.002c-56.667 -49.333 -146.667 -74 -270 -74c-124 0 -214 24.333 -270 73c-40.667 35.333 -61 80 -61 134c0 46 15.333 83 46 111c24.667 22.667 57 38.334 97 47.001v4c-39.333 10 -70.166 29.833 -92.499 59.5
s-33.5 63.834 -33.5 102.501c0 60 28.167 107.167 84.5 141.5s132.833 51.5 229.5 51.5s172 -16.333 226 -49c58.667 -35.333 88 -83.333 88 -144c0 -38 -11.333 -72 -34 -102s-53.334 -50 -92.001 -60v-4c42.667 -8 77.167 -26.833 103.5 -56.5s39.5 -63.5 39.5 -101.5z
M442 497.997c0 25.333 -7.33301 45 -22 59s-31.334 21 -50.001 21c-19.333 0 -36.166 -6.83301 -50.499 -20.5s-21.5 -33.5 -21.5 -59.5c0 -25.333 7.33301 -45 22 -59s31.334 -21 50.001 -21c19.333 0 36.166 6.83301 50.499 20.5s21.5 33.5 21.5 59.5zM449 224.997
c0 26 -7.16699 47.5 -21.5 64.5s-33.5 25.5 -57.5 25.5c-23.333 0 -42.333 -8.33301 -57 -25s-22 -38.334 -22 -65.001c0 -26 7.16699 -47.5 21.5 -64.5s33.5 -25.5 57.5 -25.5c23.333 0 42.333 8.33301 57 25s22 38.334 22 65.001z" />
    <glyph glyph-name="nine" unicode="9" 
d="M697 365c0 -100.667 -25 -183 -75 -247c-68 -86.667 -177.333 -130 -328 -130c-56 0 -118.333 6.33301 -187 19v161l17 -4c18.667 -4.66699 43.167 -9.16699 73.5 -13.5s58.5 -6.5 84.5 -6.5c36.667 0 68 6.33301 94 19c47.333 22.667 71 63 71 121h-4
c-13.333 -10.667 -29.666 -19.667 -48.999 -27c-27.333 -10 -59.333 -15 -96 -15c-82 0 -146.333 23.333 -193 70c-41.333 41.333 -62 92.333 -62 153c0 68.667 24.333 125.667 73 171c54 50.667 128.667 76 224 76c111.333 0 198.666 -32 261.999 -96s95 -147.667 95 -251z
M444 468c0 29.333 -8 52.333 -24 69s-36.333 25 -61 25s-45 -8.33301 -61 -25s-24 -39.667 -24 -69s8 -52.333 24 -69s36.333 -25 61 -25s45 8.33301 61 25s24 39.667 24 69z" />
    <glyph glyph-name="colon" unicode=":" horiz-adv-x="368" 
d="M293 330h-218v193h218v-193zM293 0h-218v193h218v-193z" />
    <glyph glyph-name="semicolon" unicode=";" horiz-adv-x="370" 
d="M294 330h-218v193h218v-193zM304 193l-115 -306h-159l62 306h212z" />
    <glyph glyph-name="less" unicode="&#x3c;" horiz-adv-x="600" 
d="M552 40l-504 198v150l504 198v-149l-312 -124l312 -124v-149z" />
    <glyph glyph-name="equal" unicode="=" horiz-adv-x="602" 
d="M554 324h-506v162h506v-162zM554 80h-506v162h506v-162z" />
    <glyph glyph-name="greater" unicode="&#x3e;" horiz-adv-x="634" 
d="M634 238l-504 -198v149l312 124l-312 124v149l504 -198v-150z" />
    <glyph glyph-name="question" unicode="?" horiz-adv-x="576" 
d="M535 544c0 -34 -11.333 -65.999 -34 -95.999c-14.667 -19.333 -35 -38.333 -61 -57c-38.667 -27.333 -63.667 -50.166 -75 -68.499s-17 -39.5 -17 -63.5h-200v21c0 47.333 13 85 39 113c34.667 27.333 59.667 47.666 75 60.999c5.33301 4.66699 10 10.167 14 16.5
s6 13.5 6 21.5c0 16 -7.83301 27.667 -23.5 35s-36.5 11 -62.5 11s-51.667 -2.66699 -77 -8s-51.333 -14 -78 -26v171c28.667 10 58.667 18 90 24c44 8.66699 89 13 135 13c84.667 0 150.667 -15.333 198 -46s71 -71.334 71 -122.001zM357 0.000976562h-218v187h218v-187z
" />
    <glyph glyph-name="at" unicode="@" horiz-adv-x="837" 
d="M812 414c0 -71.333 -19.667 -130.667 -59 -178c-45.333 -54.667 -108.333 -82 -189 -82c-24 0 -44 4.66699 -60 14s-25.333 25.333 -28 48h-4c-14.667 -20.667 -32.334 -36.167 -53.001 -46.5s-45.334 -15.5 -74.001 -15.5c-44 0 -77.667 14.5 -101 43.5
s-35 65.167 -35 108.5c0 59.333 16 111.333 48 156c36.667 51.333 85 77 145 77c32 0 56.667 -7.66699 74 -23c11.333 -10 19.333 -23.667 24 -41l9 51h129l-38 -217c-0.666992 -2 -1 -6.33301 -1 -13c0 -7.33301 1.33301 -13 4 -17s8.33398 -6 17.001 -6
c18.667 0 35.667 12.167 51 36.5s23 54.166 23 89.499c0 62.667 -23.333 111.834 -70 147.501s-108 53.5 -184 53.5c-96 0 -170 -27 -222 -81c-46 -48 -69 -108.667 -69 -182c0 -64 18.667 -116.333 56 -157c50 -54.667 128.333 -82 235 -82c32.667 0 63 1.66699 91 5
s59 11.333 93 24v-113c-39.333 -10 -75.5 -16.833 -108.5 -20.5s-66.833 -5.5 -101.5 -5.5c-128.667 0 -228 36.333 -298 109c-60.667 63.333 -91 143 -91 239c0 103.333 32.667 189 98 257c74.667 78 179.334 117 314.001 117c110 0 200 -26.833 270 -80.5
s105 -125.5 105 -215.5zM477 376.999c0 14.667 -1.00195 24.667 -3.00195 30c-4 11.333 -12.667 17 -26 17c-8 0 -15 -2 -21 -6c-10 -6.66699 -18.5 -21.5 -25.5 -44.5s-10.5 -44.5 -10.5 -64.5c0 -14.667 2.83301 -25 8.5 -31s12.834 -9 21.501 -9
c12.667 0 23.334 5.66699 32.001 17c5.33301 6.66699 10 16.667 14 30c6.66699 22 10 42.333 10 61z" />
    <glyph glyph-name="A" unicode="A" horiz-adv-x="825" 
d="M840 0h-282l-48 151h-210l-47 -151h-268l245 700h361zM480 315l-73 219h-4l-72 -219h149z" />
    <glyph glyph-name="B" unicode="B" horiz-adv-x="782" 
d="M746 187c0 -76.667 -37 -130 -111 -160c-44.667 -18 -104 -27 -178 -27h-407v700h421c96.667 0 167 -22 211 -66c32 -32 48 -70.667 48 -116c0 -40 -12.833 -74.833 -38.5 -104.5s-60.167 -48.5 -103.5 -56.5v-4c42 -6 77 -21 105 -45c35.333 -30.667 53 -71 53 -121z
M468 491c0 18 -6.33301 32.667 -19 44c-16.667 15.333 -42 23 -76 23h-69v-135h63c40 0 68.333 8.66699 85 26c10.667 11.333 16 25.333 16 42zM472 214c0 23.333 -9 41 -27 53s-44.333 18 -79 18h-62v-143h68c38 0 65.333 8.66699 82 26c12 12.667 18 28 18 46z" />
    <glyph glyph-name="C" unicode="C" horiz-adv-x="654" 
d="M634 16c-36 -10 -70.667 -17.167 -104 -21.5s-64 -6.5 -92 -6.5c-132.667 0 -236.334 34 -311.001 102c-71.333 64.667 -107 151.334 -107 260.001c0 101.333 31.667 184 95 248c75.333 76 185.333 114 330 114c35.333 0 69.666 -2.33301 102.999 -7
c10 -1.33301 32.667 -5.33301 68 -12l16 -3v-185c-20 8 -42.167 14.5 -66.5 19.5s-49.166 7.5 -74.499 7.5c-56 0 -101.5 -16.5 -136.5 -49.5s-52.5 -75.167 -52.5 -126.5c0 -46 11.333 -84.333 34 -115c32.667 -44 86 -66 160 -66c18.667 0 37.334 1.66699 56.001 5
s46 10.666 82 21.999v-186z" />
    <glyph glyph-name="D" unicode="D" horiz-adv-x="816" 
d="M786 347c0 -90.667 -22 -165.668 -66 -225.001c-60 -81.333 -155.333 -122 -286 -122h-384v700h384c128 0 222 -39.333 282 -118c46.667 -61.333 70 -139.666 70 -234.999zM504 350.999c0 73.333 -13.667 124.333 -41 153c-20 20.667 -50.333 31 -91 31h-54v-360h54
c38.667 0 68 9.33301 88 28c29.333 28 44 77.333 44 148z" />
    <glyph glyph-name="E" unicode="E" horiz-adv-x="700" 
d="M668 0h-618v700h611v-165h-343v-101h328v-160h-328v-109h350v-165z" />
    <glyph glyph-name="F" unicode="F" horiz-adv-x="679" 
d="M649 532h-331v-114h321v-168h-321v-250h-268v700h599v-168z" />
    <glyph glyph-name="G" unicode="G" horiz-adv-x="783" 
d="M733 26c-38.667 -11.333 -82.1689 -20.5 -130.502 -27.5s-101.5 -10.5 -159.5 -10.5c-156.667 0 -271 42.667 -343 128c-53.333 63.333 -80 143 -80 239c0 40.667 6.66699 80.334 20 119.001c22.667 66 62 118.667 118 158c76 53.333 178.333 80 307 80
c38 0 75.833 -1.83301 113.5 -5.5s79.834 -10.5 126.501 -20.5v-189c-19.333 9.33301 -41.666 17.666 -66.999 24.999c-38.667 10.667 -78 16 -118 16c-68 0 -122 -18 -162 -54s-60 -87 -60 -153c0 -57.333 16.333 -101 49 -131c28 -25.333 63.667 -38 107 -38
c10.667 0 19.167 0.5 25.5 1.5s13.833 2.5 22.5 4.5v167h231v-309z" />
    <glyph glyph-name="H" unicode="H" horiz-adv-x="815" 
d="M765 0h-268v258h-179v-258h-268v700h268v-242h179v242h268v-700z" />
    <glyph glyph-name="I" unicode="I" horiz-adv-x="378" 
d="M323 0h-268v700h268v-700z" />
    <glyph glyph-name="J" unicode="J" horiz-adv-x="482" 
d="M432 221c0 -74.667 -23 -132.167 -69 -172.5s-109 -60.5 -189 -60.5c-25.333 0 -50 1.5 -74 4.5s-56 9.83301 -96 20.5v190c10 -3.33301 22.5 -6.33301 37.5 -9s27.167 -4 36.5 -4c20.667 0 37.667 4.33301 51 13c23.333 15.333 35 42.333 35 81v416h268v-479z" />
    <glyph glyph-name="K" unicode="K" horiz-adv-x="826" 
d="M814 0h-320l-172 297h-4v-297h-268v700h268v-275h4l165 275h305l-236 -328z" />
    <glyph glyph-name="L" unicode="L" horiz-adv-x="703" 
d="M663 0h-598v700h268v-493h330v-207z" />
    <glyph glyph-name="M" unicode="M" horiz-adv-x="1076" 
d="M1026 0h-240v550h-6l-138 -550h-223l-134 550h-7v-550h-228v700h397l91 -383h5l87 383h396v-700z" />
    <glyph glyph-name="N" unicode="N" horiz-adv-x="864" 
d="M814 0h-395l-134 497h-4v-497h-231v700h399l130 -483h4v483h231v-700z" />
    <glyph glyph-name="O" unicode="O" horiz-adv-x="820" 
d="M800 350c0 -112.667 -34.167 -201.167 -102.5 -265.5s-164.166 -96.5 -287.499 -96.5s-219.166 32.167 -287.499 96.5s-102.5 152.833 -102.5 265.5s34.167 201.167 102.5 265.5s164.166 96.5 287.499 96.5s219.166 -32.167 287.499 -96.5s102.5 -152.833 102.5 -265.5z
M518 350c0 53.333 -5.33301 94.666 -16 123.999c-17.333 46.667 -48 70 -92 70c-44.667 0 -75.334 -23 -92.001 -69c-10.667 -29.333 -16 -71 -16 -125c0 -53.333 5.33301 -94.666 16 -123.999c17.333 -46.667 48 -70 92 -70c44.667 0 75.334 23 92.001 69
c10.667 29.333 16 71 16 125z" />
    <glyph glyph-name="P" unicode="P" horiz-adv-x="792" 
d="M763 449c0 -64.667 -22.333 -119.667 -67 -165c-54 -54.667 -131 -82 -231 -82h-147v-202h-268v700h410c99.333 0 176 -25.667 230 -77c48.667 -46 73 -104 73 -174zM493 451c0 25.333 -7.66602 45 -22.999 59c-20.667 18.667 -54.334 28 -101.001 28h-58v-174h59
c30.667 0 55 3.66699 73 11c33.333 14 50 39.333 50 76z" />
    <glyph glyph-name="Q" unicode="Q" horiz-adv-x="820" 
d="M800 350c0 -76.667 -16.667 -142.667 -50 -198c-26.667 -44.667 -64 -81 -112 -109l152 -184h-292l-99 129c-104.667 0 -191 27.667 -259 83c-80 64.667 -120 157.667 -120 279c0 112.667 34.167 201.167 102.5 265.5s164.166 96.5 287.499 96.5
c122.667 0 218.334 -32.333 287.001 -97s103 -153 103 -265zM518 350c0 53.333 -5.33301 94.666 -16 123.999c-17.333 46.667 -48 70 -92 70c-44.667 0 -75.334 -23 -92.001 -69c-10.667 -29.333 -16 -71 -16 -125c0 -53.333 5.33301 -94.666 16 -123.999
c17.333 -46.667 48 -70 92 -70c44.667 0 75.334 23 92.001 69c10.667 29.333 16 71 16 125z" />
    <glyph glyph-name="R" unicode="R" horiz-adv-x="788" 
d="M771 0l-280 -0.00195312l-26 175c-4 26.667 -16 45.667 -36 57c-14 8 -31 12 -51 12h-60v-244h-268v700h419c76 0 135.333 -9 178 -27c69.333 -29.333 104 -82.666 104 -159.999c0 -49.333 -16 -90.333 -48 -123c-29.333 -30 -68 -49 -116 -57
c30.667 -6 56.667 -17 78 -33c30.667 -23.333 50.667 -55.666 60 -96.999zM481 470.998c0 24 -8.5 42.167 -25.5 54.5s-43.5 18.5 -79.5 18.5h-70v-150h66c20.667 0 35.667 1 45 3c42.667 9.33301 64 34 64 74z" />
    <glyph glyph-name="S" unicode="S" horiz-adv-x="689" 
d="M664 223c0 -59.333 -18.667 -108.332 -56 -146.999c-56.667 -58.667 -152 -88 -286 -88c-43.333 0 -89.666 2.33301 -138.999 7s-99.333 13.334 -150 26.001v182c34 -13.333 71.333 -24.5 112 -33.5s83.667 -13.5 129 -13.5c43.333 0 74.166 4.33301 92.499 13
s27.5 20.667 27.5 36c0 18 -12.333 31.333 -37 40c-8 2.66699 -33.667 8.66699 -77 18c-77.333 16 -132.333 34 -165 54c-60 36.667 -90 92.667 -90 168c0 61.333 23 111.333 69 150c61.333 51.333 158.666 77 291.999 77c39.333 0 77.333 -1.83301 114 -5.5
s76 -9.83398 118 -18.501v-180c-26 10 -54 18 -84 24c-39.333 8 -80.666 12 -123.999 12c-36.667 0 -62.334 -2 -77.001 -6c-25.333 -6.66699 -38 -20.334 -38 -41.001c0 -17.333 13 -30 39 -38c12.667 -4 28.667 -7.66699 48 -11
c64.667 -12.667 107.334 -22.334 128.001 -29.001c47.333 -15.333 83.333 -36.666 108 -63.999c30.667 -33.333 46 -77.333 46 -132z" />
    <glyph glyph-name="T" unicode="T" horiz-adv-x="760" 
d="M750 493h-236v-493h-268v493h-236v207h740v-207z" />
    <glyph glyph-name="U" unicode="U" horiz-adv-x="832" 
d="M767 275c0 -83.333 -23.998 -148.998 -71.998 -196.998c-37.333 -36.667 -87.333 -62.334 -150 -77.001c-38 -8.66699 -81 -13 -129 -13c-46.667 0 -89 4.33301 -127 13c-64 14.667 -114.333 40 -151 76c-48.667 48 -73 114 -73 198v425h268v-415
c0 -30.667 4.33301 -55.334 13 -74.001c13.333 -28.667 36.666 -43 69.999 -43s56.666 14 69.999 42c8.66699 18.667 13 43.667 13 75v415h268v-425z" />
    <glyph glyph-name="V" unicode="V" horiz-adv-x="798" 
d="M812 700l-259 -700h-317l-250 700h288l129 -419h4l130 419h275z" />
    <glyph glyph-name="W" unicode="W" horiz-adv-x="1111" 
d="M1127 698l-168 -698h-288l-116 456h-4l-110 -456h-294l-163 698h251l84 -446h4l111 446h257l108 -446h4l85 446h239z" />
    <glyph glyph-name="X" unicode="X" horiz-adv-x="835" 
d="M846 0h-312l-128 237h-4l-121 -237h-292l248 359l-218 341h310l101 -207h4l111 207h283l-234 -341z" />
    <glyph glyph-name="Y" unicode="Y" horiz-adv-x="761" 
d="M776 700l-263 -485v-215h-268v215l-260 485h292l108 -293h4l109 293h278z" />
    <glyph glyph-name="Z" unicode="Z" horiz-adv-x="687" 
d="M667 0h-647v213l343 307h-331v180h624v-213l-332 -300h343v-187z" />
    <glyph glyph-name="bracketleft" unicode="[" horiz-adv-x="389" 
d="M357 -140h-324v898h324v-144h-132v-610h132v-144z" />
    <glyph glyph-name="backslash" unicode="\" horiz-adv-x="372" 
d="M432 -12h-177l-315 724h179z" />
    <glyph glyph-name="bracketright" unicode="]" horiz-adv-x="389" 
d="M356 -140h-324v144h132v610h-132v144h324v-898z" />
    <glyph glyph-name="asciicircum" unicode="^" horiz-adv-x="602" 
d="M549 334h-155l-93 198l-93 -198h-155l175 366h146z" />
    <glyph glyph-name="underscore" unicode="_" horiz-adv-x="522" 
d="M522 -171h-522v96h522v-96z" />
    <glyph glyph-name="grave" unicode="`" horiz-adv-x="278" 
d="M253 594h-139l-197 156h237z" />
    <glyph glyph-name="a" unicode="a" horiz-adv-x="650" 
d="M614 0l-230.001 0.000976562v64h-4c-22.667 -30 -52 -51 -88 -63c-26 -8.66699 -57.333 -13 -94 -13c-59.333 0 -105.333 15.333 -138 46c-30 28 -45 65 -45 111c0 55.333 19 97.666 57 126.999c31.333 24.667 75 41 131 49c32.667 4.66699 81.334 7 146.001 7h35v16
c0 24 -14 41.333 -42 52c-21.333 8 -48 12 -80 12c-17.333 0 -36.666 -1.66699 -57.999 -5c-42 -6.66699 -83.667 -18.667 -125 -36v137c38.667 10 79.5 17.833 122.5 23.5s84.5 8.5 124.5 8.5c81.333 0 146.666 -14 195.999 -42c61.333 -34.667 92 -88 92 -160v-334z
M383.999 199.001v29.001h-13c-43.333 0 -73.5 -4.83301 -90.5 -14.5s-25.5 -25.834 -25.5 -48.501c0 -14.667 5.33301 -26.667 16 -36s25 -14 43 -14c19.333 0 35.833 7 49.5 21s20.5 35 20.5 63z" />
    <glyph glyph-name="b" unicode="b" horiz-adv-x="711" 
d="M691 271c0 -102.667 -26.668 -178.332 -80.001 -226.999c-40.667 -37.333 -93 -56 -157 -56c-77.333 0 -132.666 33.667 -165.999 101h-4v-89h-234v762h252v-305c36.667 52.667 90 79 160 79c63.333 0 115.333 -19.667 156 -59c48.667 -46.667 73 -115.334 73 -206.001z
M420.999 269.002c0 28.667 -3.33301 52 -10 70c-10 27.333 -27.667 41 -53 41s-43 -13.333 -53 -40c-6.66699 -17.333 -10 -41 -10 -71c0 -28.667 3.33301 -52 10 -70c10 -27.333 27.667 -41 53 -41s43 13.333 53 40c6.66699 17.333 10 41 10 71z" />
    <glyph glyph-name="c" unicode="c" horiz-adv-x="559" 
d="M532 14c-31.333 -9.33301 -62.667 -15.9971 -94 -19.9971s-63 -6 -95 -6c-106 0 -187.667 27.333 -245 82c-52.667 50 -79 115 -79 195c0 71.333 21.333 130.666 64 177.999c56 62 141.667 93 257 93c40.667 0 77.334 -2.33301 110.001 -7
c18.667 -2.66699 44.667 -8.33398 78 -17.001v-150c-20 8.66699 -39.833 14.834 -59.5 18.501s-35.834 5.5 -48.501 5.5c-38.667 0 -70.167 -11.167 -94.5 -33.5s-36.5 -52.833 -36.5 -91.5c0 -36.667 11.667 -66.334 35 -89.001s55 -34 95 -34c16 0 32.5 1.66699 49.5 5
s38.167 10.666 63.5 21.999v-151z" />
    <glyph glyph-name="d" unicode="d" horiz-adv-x="711" 
d="M661 0l-234.002 -0.000976562v89h-4c-33.333 -67.333 -88.666 -101 -165.999 -101c-63.333 0 -115.666 18.667 -156.999 56c-53.333 48.667 -80 124.334 -80 227.001c0 90 24.333 158.333 73 205c41.333 40 93.333 60 156 60c70 0 123.333 -26.333 160 -79v305h252v-762z
M415.998 268.999c0 28.667 -3.33301 52 -10 70c-10 27.333 -27.667 41 -53 41s-43 -13.333 -53 -40c-6.66699 -17.333 -10 -41 -10 -71c0 -28.667 3.33301 -52 10 -70c10 -27.333 27.667 -41 53 -41s43 13.333 53 40c6.66699 17.333 10 41 10 71z" />
    <glyph glyph-name="e" unicode="e" horiz-adv-x="633" 
d="M616 201l-350 0.000976562c0 -22.667 8 -41 24 -55c22 -18.667 56.667 -28 104 -28c31.333 0 60.333 2.66699 87 8s59 14.666 97 27.999v-136c-37.333 -10 -77 -17.5 -119 -22.5s-81 -7.5 -117 -7.5c-122 0 -210.333 33.333 -265 100c-40 48.667 -60 109.667 -60 183
c0 80.667 28 145 84 193s129 72 219 72c80 0 145.333 -18.667 196 -56c66.667 -49.333 100 -127.333 100 -234v-45zM396 308.001l-0.000976562 8.99902c0 33.333 -7.33301 58.333 -22 75c-11.333 12.667 -25.666 19 -42.999 19c-15.333 0 -28.333 -4.66699 -39 -14
c-17.333 -15.333 -26 -41.666 -26 -78.999v-10h130z" />
    <glyph glyph-name="f" unicode="f" horiz-adv-x="463" 
d="M468 609c-16 4.66699 -32.668 7.00098 -50.001 7.00098c-22 0 -39 -6 -51 -18s-18 -27.667 -18 -47v-27h107v-150h-107v-374h-252v374h-92v150h92v44c0 49.333 10.667 89.333 32 120c36 52 99.333 78 190 78c34.667 0 67.334 -2.33301 98.001 -7
c16.667 -2.66699 33.667 -6.33398 51 -11.001v-139z" />
    <glyph glyph-name="g" unicode="g" horiz-adv-x="713" 
d="M663 76c0 -53.333 -5.33398 -96.668 -16.001 -130.001c-16.667 -52 -47 -92.667 -91 -122c-55.333 -36.667 -131 -55 -227 -55c-61.333 0 -114.666 3.5 -159.999 10.5s-83 15.167 -113 24.5v169c30.667 -18 63.167 -31.5 97.5 -40.5s67.833 -13.5 100.5 -13.5
c66 0 112.333 18 139 54c17.333 23.333 26 54.333 26 93v21c-42.667 -58 -100.667 -87 -174 -87c-62.667 0 -114 19.667 -154 59c-46.667 46 -70 113 -70 201s21.667 156.667 65 206c40.667 46.667 94.334 70 161.001 70c39.333 0 73.666 -8 102.999 -24
c35.333 -19.333 59 -47.666 71 -84.999h4v97h238v-448zM418.999 267.998c0 34 -4 59.333 -12 76c-10 21.333 -27.333 32 -52 32s-41.5 -9.5 -50.5 -28.5s-13.5 -45.5 -13.5 -79.5s4.5 -60.5 13.5 -79.5s25.833 -28.5 50.5 -28.5s42 10.667 52 32c8 16.667 12 42 12 76z" />
    <glyph glyph-name="h" unicode="h" horiz-adv-x="694" 
d="M644 0h-251.999v302c0 22 -1.66699 37.333 -5 46c-6.66699 16.667 -20 25 -40 25c-20.667 0 -34 -8 -40 -24c-3.33301 -8.66699 -5 -24.334 -5 -47.001v-302h-252v754h252v-296c22 30.667 50.333 52.334 85 65.001c23.333 8.66699 48 13 74 13
c55.333 0 99.666 -14.5 132.999 -43.5s50 -71.833 50 -128.5v-364z" />
    <glyph glyph-name="i" unicode="i" horiz-adv-x="352" 
d="M302 579h-252v175h252v-175zM302 0h-252v524h252v-524z" />
    <glyph glyph-name="j" unicode="j" horiz-adv-x="353" 
d="M303 579h-252v175h252v-175zM303 -32c0 -63.333 -16.168 -112.333 -48.501 -147s-80.5 -52 -144.5 -52c-25.333 0 -50.5 1.16699 -75.5 3.5s-51.167 6.5 -78.5 12.5v153c14 -4.66699 27.667 -7 41 -7c18.667 0 32.334 5 41.001 15s13 26.667 13 50v528h252v-556z" />
    <glyph glyph-name="k" unicode="k" horiz-adv-x="742" 
d="M741 0h-294l-141 254h-4v-254h-252v754h252v-438h4l143 208h285l-177 -231z" />
    <glyph glyph-name="l" unicode="l" horiz-adv-x="352" 
d="M302 0h-252v753h252v-753z" />
    <glyph glyph-name="m" unicode="m" horiz-adv-x="1034" 
d="M984 0l-252 0.000976562v302c0 27.333 -3.5 46 -10.5 56s-18.5 15 -34.5 15c-22.667 0 -36.334 -11.667 -41.001 -35c-2 -10.667 -3 -22.667 -3 -36v-302h-252v302c0 22 -1.66699 37.333 -5 46c-6 16.667 -19 25 -39 25s-33.333 -8.33301 -40 -25
c-3.33301 -8.66699 -5 -24 -5 -46v-302h-252v524h238v-91h4c18.667 41.333 47.334 70.333 86.001 87c25.333 10.667 55 16 89 16s62.667 -4.33301 86 -13c34 -12.667 60 -35 78 -67c14.667 23.333 33.667 41.666 57 54.999c29.333 16.667 65.333 25 108 25
c80.667 0 135 -26 163 -78c16.667 -31.333 25 -79.333 25 -144v-314z" />
    <glyph glyph-name="n" unicode="n" horiz-adv-x="693" 
d="M643 0l-252 0.000976562v302c0 22 -1.66699 37.333 -5 46c-6 16.667 -19 25 -39 25s-33.333 -8.33301 -40 -25c-3.33301 -8.66699 -5 -24 -5 -46v-302h-252v524h238v-91h4c16 39.333 42.333 67.666 79 84.999c25.333 12 55.333 18 90 18
c59.333 0 104.5 -14.5 135.5 -43.5s46.5 -71.833 46.5 -128.5v-364z" />
    <glyph glyph-name="o" unicode="o" horiz-adv-x="690" 
d="M670 262c0 -84.667 -29.167 -151.5 -87.5 -200.5s-137.5 -73.5 -237.5 -73.5s-179.167 24.333 -237.5 73s-87.5 115.667 -87.5 201c0 84.667 29.167 151.5 87.5 200.5s137.5 73.5 237.5 73.5s179.167 -24.333 237.5 -73s87.5 -115.667 87.5 -201zM400 262
c0 38.667 -2.33301 66 -7 82c-8 28 -24 42 -48 42s-40 -13.667 -48 -41c-4.66699 -16 -7 -43.667 -7 -83c0 -38.667 2.33301 -66 7 -82c8 -28 24 -42 48 -42s40 13.667 48 41c4.66699 16 7 43.667 7 83z" />
    <glyph glyph-name="p" unicode="p" horiz-adv-x="711" 
d="M691 253c0 -90 -24.3311 -158.332 -72.998 -204.999c-41.333 -40 -93.333 -60 -156 -60c-70 0 -123.333 26.333 -160 79v-286h-252v743h234v-89h4c33.333 67.333 88.666 101 165.999 101c63.333 0 115.666 -18.667 156.999 -56c53.333 -48.667 80 -124.334 80 -227.001z
M421.002 255.001c0 28.667 -3.33301 52 -10 70c-10 27.333 -27.667 41 -53 41s-43 -13.333 -53 -40c-6.66699 -17.333 -10 -41 -10 -71c0 -28.667 3.33301 -52 10 -70c10 -27.333 27.667 -41 53 -41s43 13.333 53 40c6.66699 17.333 10 41 10 71z" />
    <glyph glyph-name="q" unicode="q" horiz-adv-x="711" 
d="M661 -219l-251.999 -0.00195312v286c-36.667 -52.667 -90 -79 -160 -79c-63.333 0 -115.333 19.667 -156 59c-48.667 46.667 -73 115.334 -73 206.001c0 102.667 26.667 178.334 80 227.001c40.667 37.333 93 56 157 56c77.333 0 132.666 -33.667 165.999 -101h4v89h234
v-743zM416.001 254.998c0 28.667 -3.33301 52 -10 70c-10 27.333 -27.667 41 -53 41s-43 -13.333 -53 -40c-6.66699 -17.333 -10 -41 -10 -71c0 -28.667 3.33301 -52 10 -70c10 -27.333 27.667 -41 53 -41s43 13.333 53 40c6.66699 17.333 10 41 10 71z" />
    <glyph glyph-name="r" unicode="r" horiz-adv-x="501" 
d="M489 321c-6 1.33301 -14.501 3 -25.501 5s-19.833 3 -26.5 3c-39.333 0 -71.666 -12 -96.999 -36s-38 -58.333 -38 -103v-190h-252v524h236v-119h4c10.667 36 29 66 55 90c29.333 27.333 63.666 41 102.999 41c12.667 0 26.334 -1.66699 41.001 -5v-210z" />
    <glyph glyph-name="s" unicode="s" horiz-adv-x="568" 
d="M551 176c0 -47.333 -17.666 -86.998 -52.999 -118.998c-50.667 -46 -133.334 -69 -248.001 -69c-31.333 0 -64 2 -98 6s-72.333 12 -115 24v144c27.333 -12 54.333 -21.333 81 -28c36 -9.33301 71 -14 105 -14c61.333 0 92 11.667 92 35c0 16 -16 26.333 -48 31l-45 6
c-66 11.333 -113.667 26.666 -143 45.999c-41.333 26.667 -62 66.667 -62 120c0 54 20.667 95.667 62 125c49.333 35.333 128.333 53 237 53c28.667 0 57.5 -1.5 86.5 -4.5s63.167 -8.83301 102.5 -17.5v-138c-57.333 18.667 -112.333 28 -165 28
c-26 0 -47 -2.16699 -63 -6.5s-24 -13.833 -24 -28.5c0 -16.667 29.333 -27.834 88 -33.501s103.667 -16.5 135 -32.5c50 -26 75 -68.333 75 -127z" />
    <glyph glyph-name="t" unicode="t" horiz-adv-x="463" 
d="M455 15c-20 -7.33301 -39.3311 -12.999 -57.998 -16.999c-31.333 -6.66699 -64.333 -10 -99 -10c-83.333 0 -141.333 22.333 -174 67c-23.333 32 -35 77.667 -35 137v181h-89v151h89v128l252 75v-203h114v-151h-114v-148c0 -22.667 4.83301 -39.834 14.5 -51.501
s24.167 -17.5 43.5 -17.5c7.33301 0 15.166 0.666992 23.499 2s19.166 4 32.499 8v-151z" />
    <glyph glyph-name="u" unicode="u" horiz-adv-x="693" 
d="M643 0l-238.002 0.000976562v90c-14 -28.667 -31 -50.667 -51 -66c-31.333 -24 -71.666 -36 -120.999 -36c-59.333 0 -104.666 14.667 -135.999 44s-47 71.666 -47 126.999v365h252v-303c0 -22 1.66699 -37.333 5 -46c6 -16.667 19 -25 39 -25s33.333 8.33301 40 25
c3.33301 8.66699 5 24 5 46v303h252v-524z" />
    <glyph glyph-name="v" unicode="v" horiz-adv-x="632" 
d="M635 524l-159 -524h-323l-156 524h258l66 -345l68 345h246z" />
    <glyph glyph-name="w" unicode="w" horiz-adv-x="1001" 
d="M1007 524l-127 -524h-314l-61 353h-4l-63 -353h-316l-128 524h247l60 -344h4l53 344h303l57 -344h4l55 344h230z" />
    <glyph glyph-name="x" unicode="x" horiz-adv-x="671" 
d="M683 0h-269l-81 176h-4l-82 -176h-259l172 282l-160 242h267l69 -163h4l67 163h249l-146 -238z" />
    <glyph glyph-name="y" unicode="y" horiz-adv-x="625" 
d="M633 524l-177.001 -544.999c-21.333 -66 -50 -115.333 -86 -148c-45.333 -41.333 -106.666 -62 -183.999 -62c-24.667 0 -51.167 1.66699 -79.5 5s-56.166 8.33301 -83.499 15v146c25.333 -6.66699 51 -10 77 -10c25.333 0 44.666 5.66699 57.999 17
c8.66699 7.33301 14.667 16.666 18 27.999l5 17l-194 537h261l72 -330l66 330h247z" />
    <glyph glyph-name="z" unicode="z" horiz-adv-x="613" 
d="M578 0h-543v214l263 156v4h-254v150h527v-209l-249 -161v-4h256v-150z" />
    <glyph glyph-name="braceleft" unicode="{" horiz-adv-x="370" 
d="M354 -140l-132.001 0.000976562c-36 0 -67.167 13.167 -93.5 39.5s-39.5 59.166 -39.5 98.499v189c0 25.333 -9 43.333 -27 54c-11.333 6.66699 -26.666 10 -45.999 10v116c30.667 0 51.667 8.66699 63 26c6.66699 10 10 22.667 10 38v189c0 38 13.167 70.5 39.5 97.5
s57.5 40.5 93.5 40.5h132v-110h-15c-25.333 0 -42.333 -7.66699 -51 -23c-4.66699 -8 -7 -20.667 -7 -38v-177c0 -36 -15.333 -63 -46 -81c-22 -12.667 -45.333 -19 -70 -19c26 -2 49 -8.66699 69 -20c31.333 -18 47 -45.333 47 -82v-177c0 -22 4.66699 -37.667 14 -47
s24 -14 44 -14h15v-110z" />
    <glyph glyph-name="bar" unicode="|" horiz-adv-x="228" 
d="M198 -12h-168v764h168v-764z" />
    <glyph glyph-name="braceright" unicode="}" horiz-adv-x="370" 
d="M354 251c-30.667 0 -51.666 -8.66797 -62.999 -26.001c-6.66699 -10 -10 -22.667 -10 -38v-189c0 -38 -13.167 -70.5 -39.5 -97.5s-57.5 -40.5 -93.5 -40.5h-132v110h15c25.333 0 42.333 7.66699 51 23c4.66699 8 7 20.667 7 38v177c0 36 15.333 63 46 81
c22 12.667 45.333 19 70 19c-26 2 -49 8.66699 -69 20c-31.333 18 -47 45.333 -47 82v177c0 22 -4.66699 37.667 -14 47s-24 14 -44 14h-15v110h132c36 0 67.167 -13.167 93.5 -39.5s39.5 -59.166 39.5 -98.499v-189c0 -25.333 9 -43.333 27 -54
c11.333 -6.66699 26.666 -10 45.999 -10v-116z" />
    <glyph glyph-name="asciitilde" unicode="~" horiz-adv-x="646" 
d="M577 233l-3.99902 -5c-25.333 -31.333 -42 -50.333 -50 -57c-24 -20 -51.667 -30 -83 -30c-16.667 0 -33.667 2.66699 -51 8s-37.666 13.5 -60.999 24.5s-42.333 18.833 -57 23.5c-24.667 8 -48 12 -70 12c-24.667 0 -45.667 -7.66699 -63 -23
c-13.333 -12 -23.333 -27 -30 -45l-39 129c13.333 26.667 29.666 48 48.999 64c25.333 20.667 54.666 31 87.999 31c20 0 42.667 -4 68 -12c12.667 -4 36.334 -13 71.001 -27c25.333 -10 42.666 -16.667 51.999 -20c17.333 -6 32 -9 44 -9c24 0 46 9.33301 66 28
c12 10.667 22.333 24 31 40z" />
    <glyph glyph-name="c128" horiz-adv-x="909" 
d="M889 207c0 -61.333 -18.667 -111.332 -56 -149.999c-44 -46 -108 -69 -192 -69c-23.333 0 -46.333 1.83301 -69 5.5s-49.667 10.167 -81 19.5v150c12 -5.33301 23.333 -8.83301 34 -10.5s20.667 -2.5 30 -2.5c14.667 0 27 2.66699 37 8c19.333 10 29 28.333 29 55
c0 21.333 -6.66699 37.666 -20 48.999s-30 17 -50 17c-16 0 -31 -1.66699 -45 -5s-28 -8 -42 -14v-260h-268v493h-186v207h700v-197h-246v-84c28.667 8 56.5 13.667 83.5 17s52.5 5 76.5 5c100 0 172.333 -28 217 -84c32 -40 48 -90 48 -150z" />
    <glyph glyph-name="c128" unicode="&#x402;" horiz-adv-x="909" 
d="M889 207c0 -61.333 -18.667 -111.332 -56 -149.999c-44 -46 -108 -69 -192 -69c-23.333 0 -46.333 1.83301 -69 5.5s-49.667 10.167 -81 19.5v150c12 -5.33301 23.333 -8.83301 34 -10.5s20.667 -2.5 30 -2.5c14.667 0 27 2.66699 37 8c19.333 10 29 28.333 29 55
c0 21.333 -6.66699 37.666 -20 48.999s-30 17 -50 17c-16 0 -31 -1.66699 -45 -5s-28 -8 -42 -14v-260h-268v493h-186v207h700v-197h-246v-84c28.667 8 56.5 13.667 83.5 17s52.5 5 76.5 5c100 0 172.333 -28 217 -84c32 -40 48 -90 48 -150z" />
    <glyph glyph-name="c129" horiz-adv-x="673" 
d="M568 903l-216 -156h-153l109 156h260zM623 500h-305v-500h-268v700h573v-200z" />
    <glyph glyph-name="c129" unicode="&#x403;" horiz-adv-x="673" 
d="M568 903l-216 -156h-153l109 156h260zM623 500h-305v-500h-268v700h573v-200z" />
    <glyph glyph-name="c141" horiz-adv-x="826" 
d="M666 903l-216 -156h-153l109 156h260zM814 0h-320l-172 297h-4v-297h-268v700h268v-275h4l165 275h305l-236 -328z" />
    <glyph glyph-name="c141" unicode="&#x40c;" horiz-adv-x="826" 
d="M666 903l-216 -156h-153l109 156h260zM814 0h-320l-172 297h-4v-297h-268v700h268v-275h4l165 275h305l-236 -328z" />
    <glyph glyph-name="c142" horiz-adv-x="939" 
d="M889 0h-268.001v193c0 20 -5.5 35.167 -16.5 45.5s-28.833 15.5 -53.5 15.5c-16 0 -31.167 -1.5 -45.5 -4.5s-28.166 -7.83301 -41.499 -14.5v-235h-268v493h-186v207h700v-197h-246v-84c24 6 51.333 11.167 82 15.5s56.667 6.5 78 6.5c110 0 186 -29.667 228 -89
c24.667 -34.667 37 -79 37 -133v-219z" />
    <glyph glyph-name="c142" unicode="&#x40b;" horiz-adv-x="939" 
d="M889 0h-268.001v193c0 20 -5.5 35.167 -16.5 45.5s-28.833 15.5 -53.5 15.5c-16 0 -31.167 -1.5 -45.5 -4.5s-28.166 -7.83301 -41.499 -14.5v-235h-268v493h-186v207h700v-197h-246v-84c24 6 51.333 11.167 82 15.5s56.667 6.5 78 6.5c110 0 186 -29.667 228 -89
c24.667 -34.667 37 -79 37 -133v-219z" />
    <glyph glyph-name="c143" horiz-adv-x="808" 
d="M758 0h-220v-150h-268v150h-220v700h268v-510h172v510h268v-700z" />
    <glyph glyph-name="c143" unicode="&#x40f;" horiz-adv-x="808" 
d="M758 0h-220v-150h-268v150h-220v700h268v-510h172v510h268v-700z" />
    <glyph glyph-name="c144" horiz-adv-x="696" 
d="M646 -8c0 -61.333 -9.33203 -108.668 -27.999 -142.001c-30 -54 -85 -81 -165 -81c-26 0 -51.333 1.16699 -76 3.5s-50.667 6.5 -78 12.5v153c14 -4.66699 27.667 -7 41 -7c18.667 0 32.334 5 41.001 15s13 26.667 13 50v291c0 21.333 -1.33301 35.666 -4 42.999
c-6.66699 18.667 -20.334 28 -41.001 28c-20 0 -33.333 -9.33301 -40 -28c-3.33301 -9.33301 -5 -23.666 -5 -42.999v-287h-252v572h-82v109h82v73h252v-73h200v-109h-200v-129c22 30.667 50.333 52.334 85 65.001c23.333 8.66699 48 13 74 13
c55.333 0 99.666 -14.5 132.999 -43.5s50 -71.833 50 -128.5v-357z" />
    <glyph glyph-name="c144" unicode="&#x452;" horiz-adv-x="696" 
d="M646 -8c0 -61.333 -9.33203 -108.668 -27.999 -142.001c-30 -54 -85 -81 -165 -81c-26 0 -51.333 1.16699 -76 3.5s-50.667 6.5 -78 12.5v153c14 -4.66699 27.667 -7 41 -7c18.667 0 32.334 5 41.001 15s13 26.667 13 50v291c0 21.333 -1.33301 35.666 -4 42.999
c-6.66699 18.667 -20.334 28 -41.001 28c-20 0 -33.333 -9.33301 -40 -28c-3.33301 -9.33301 -5 -23.666 -5 -42.999v-287h-252v572h-82v109h82v73h252v-73h200v-109h-200v-129c22 30.667 50.333 52.334 85 65.001c23.333 8.66699 48 13 74 13
c55.333 0 99.666 -14.5 132.999 -43.5s50 -71.833 50 -128.5v-357z" />
    <glyph glyph-name="c157" horiz-adv-x="733" 
d="M588 750l-197 -156h-139l99 156h237zM723 0h-277l-144 231h-4v-231h-248v524h248v-229h4l143 229h278l-180 -257z" />
    <glyph glyph-name="c157" unicode="&#x45c;" horiz-adv-x="733" 
d="M588 750l-197 -156h-139l99 156h237zM723 0h-277l-144 231h-4v-231h-248v524h248v-229h4l143 229h278l-180 -257z" />
    <glyph glyph-name="c158" horiz-adv-x="696" 
d="M646 0l-251.998 -0.000976562v287c0 21.333 -1.33301 35.666 -4 42.999c-6.66699 18.667 -20.334 28 -41.001 28c-20 0 -33.333 -9.33301 -40 -28c-3.33301 -9.33301 -5 -23.666 -5 -42.999v-287h-252v572h-82v109h82v73h252v-73h200v-109h-200v-129
c22 30.667 50.333 52.334 85 65.001c23.333 8.66699 48 13 74 13c55.333 0 99.666 -14.5 132.999 -43.5s50 -71.833 50 -128.5v-349z" />
    <glyph glyph-name="c158" unicode="&#x45b;" horiz-adv-x="696" 
d="M646 0l-251.998 -0.000976562v287c0 21.333 -1.33301 35.666 -4 42.999c-6.66699 18.667 -20.334 28 -41.001 28c-20 0 -33.333 -9.33301 -40 -28c-3.33301 -9.33301 -5 -23.666 -5 -42.999v-287h-252v572h-82v109h82v73h252v-73h200v-109h-200v-129
c22 30.667 50.333 52.334 85 65.001c23.333 8.66699 48 13 74 13c55.333 0 99.666 -14.5 132.999 -43.5s50 -71.833 50 -128.5v-349z" />
    <glyph glyph-name="nonbreakingspace" unicode="&#xa0;" horiz-adv-x="500" 
 />
    <glyph glyph-name="exclamdown" unicode="&#xa1;" horiz-adv-x="739" 
d="M600 900c-7.33301 -49.333 -31.1699 -87.166 -71.5029 -113.499s-93.166 -39.5 -158.499 -39.5s-118.166 13.167 -158.499 39.5s-64.166 64.166 -71.499 113.499l123 26c0 -22 11.333 -38.333 34 -49c18.667 -8.66699 43 -13 73 -13c31.333 0 57 5 77 15s30 25.667 30 47
zM752.996 700l-222.998 -528.999c-22 -52 -47.667 -91.667 -77 -119c-46 -42.667 -106.667 -64 -182 -64c-26.667 0 -56 2.16699 -88 6.5s-63 10.166 -93 17.499v177c21.333 -6.66699 38.666 -11 51.999 -13s26 -3 38 -3c17.333 0 29.666 2.16699 36.999 6.5
s11 10.833 11 19.5c0 2.66699 -0.333008 7 -1 13s-5.66699 18 -15 36l-226 452h305l98 -303h4l96 303h264z" />
    <glyph glyph-name="exclamdown" unicode="&#x40e;" horiz-adv-x="739" 
d="M600 900c-7.33301 -49.333 -31.1699 -87.166 -71.5029 -113.499s-93.166 -39.5 -158.499 -39.5s-118.166 13.167 -158.499 39.5s-64.166 64.166 -71.499 113.499l123 26c0 -22 11.333 -38.333 34 -49c18.667 -8.66699 43 -13 73 -13c31.333 0 57 5 77 15s30 25.667 30 47
zM752.996 700l-222.998 -528.999c-22 -52 -47.667 -91.667 -77 -119c-46 -42.667 -106.667 -64 -182 -64c-26.667 0 -56 2.16699 -88 6.5s-63 10.166 -93 17.499v177c21.333 -6.66699 38.666 -11 51.999 -13s26 -3 38 -3c17.333 0 29.666 2.16699 36.999 6.5
s11 10.833 11 19.5c0 2.66699 -0.333008 7 -1 13s-5.66699 18 -15 36l-226 452h305l98 -303h4l96 303h264z" />
    <glyph glyph-name="cent" unicode="&#xa2;" horiz-adv-x="625" 
d="M511 732c-5.33301 -42 -23.001 -75.332 -53.001 -99.999c-35.333 -29.333 -84 -44 -146 -44c-61.333 0 -109.666 14.667 -144.999 44c-30.667 25.333 -48.667 58.666 -54 99.999l106 25c0 -14.667 5.33301 -27 16 -37c16 -14.667 41.667 -22 77 -22
c26.667 0 48 4.33301 64 13c19.333 10.667 29 26 29 46zM632.999 524.001l-176.999 -544.999c-18.667 -57.333 -43.667 -102.333 -75 -135c-48.667 -50 -113.667 -75 -195 -75c-26.667 0 -52 1.5 -76 4.5s-53 7.83301 -87 14.5v147c25.333 -6.66699 51 -10 77 -10
c25.333 0 44.666 5.66699 57.999 17c8.66699 7.33301 14.667 16.666 18 27.999l5 17l-194 537h261l72 -330l66 330h247z" />
    <glyph glyph-name="cent" unicode="&#x45e;" horiz-adv-x="625" 
d="M511 732c-5.33301 -42 -23.001 -75.332 -53.001 -99.999c-35.333 -29.333 -84 -44 -146 -44c-61.333 0 -109.666 14.667 -144.999 44c-30.667 25.333 -48.667 58.666 -54 99.999l106 25c0 -14.667 5.33301 -27 16 -37c16 -14.667 41.667 -22 77 -22
c26.667 0 48 4.33301 64 13c19.333 10.667 29 26 29 46zM632.999 524.001l-176.999 -544.999c-18.667 -57.333 -43.667 -102.333 -75 -135c-48.667 -50 -113.667 -75 -195 -75c-26.667 0 -52 1.5 -76 4.5s-53 7.83301 -87 14.5v147c25.333 -6.66699 51 -10 77 -10
c25.333 0 44.666 5.66699 57.999 17c8.66699 7.33301 14.667 16.666 18 27.999l5 17l-194 537h261l72 -330l66 330h247z" />
    <glyph glyph-name="sterling" unicode="&#xa3;" horiz-adv-x="482" 
d="M432 221c0 -74.667 -23 -132.167 -69 -172.5s-109 -60.5 -189 -60.5c-25.333 0 -50 1.5 -74 4.5s-56 9.83301 -96 20.5v190c10 -3.33301 22.5 -6.33301 37.5 -9s27.167 -4 36.5 -4c20.667 0 37.667 4.33301 51 13c23.333 15.333 35 42.333 35 81v416h268v-479z" />
    <glyph glyph-name="sterling" unicode="&#x408;" horiz-adv-x="482" 
d="M432 221c0 -74.667 -23 -132.167 -69 -172.5s-109 -60.5 -189 -60.5c-25.333 0 -50 1.5 -74 4.5s-56 9.83301 -96 20.5v190c10 -3.33301 22.5 -6.33301 37.5 -9s27.167 -4 36.5 -4c20.667 0 37.667 4.33301 51 13c23.333 15.333 35 42.333 35 81v416h268v-479z" />
    <glyph glyph-name="currency" unicode="&#xa4;" horiz-adv-x="600" 
d="M559 152l-61.001 -61.001l-53 53c-22 -16.667 -45.5 -28.667 -70.5 -36s-49.833 -11 -74.5 -11c-22.667 0 -44.334 2.66699 -65.001 8c-28.667 7.33301 -55.667 20 -81 38l-52 -52l-61 61l52 52c-18 25.333 -30.5 50.166 -37.5 74.499s-10.5 48.166 -10.5 71.499
c0 22.667 3.5 46.5 10.5 71.5s19.5 49.833 37.5 74.5l-52 52l61 61l52 -52c23.333 16 47.333 27.667 72 35s49.334 11 74.001 11c23.333 0 46.833 -3.16699 70.5 -9.5s48.834 -18.5 75.501 -36.5l52 52l61 -61l-52 -52c18 -25.333 31 -51.666 39 -78.999
c6 -21.333 9 -43.666 9 -66.999s-2.66699 -44.666 -8 -63.999c-8 -29.333 -21.667 -56.333 -41 -81zM404.999 349.999c0 32.667 -9.5 60 -28.5 82s-44.5 33 -76.5 33c-31.333 0 -56.666 -11 -75.999 -33s-29 -49.333 -29 -82s9.5 -60 28.5 -82s44.5 -33 76.5 -33
c31.333 0 56.666 11 75.999 33s29 49.333 29 82z" />
    <glyph glyph-name="yen" unicode="&#xa5;" horiz-adv-x="665" 
d="M635 500h-317v-500h-268v700h340v110h245v-310z" />
    <glyph glyph-name="yen" unicode="&#x490;" horiz-adv-x="665" 
d="M635 500h-317v-500h-268v700h340v110h245v-310z" />
    <glyph glyph-name="brokenbar" unicode="&#xa6;" horiz-adv-x="222" 
d="M195 450h-168v300h168v-300zM195 -12h-168v300h168v-300z" />
    <glyph glyph-name="section" unicode="&#xa7;" horiz-adv-x="632" 
d="M603 272c0 -34.667 -11.333 -65.332 -34 -91.999c-15.333 -18 -35 -33 -59 -45c18.667 -13.333 33.334 -28.333 44.001 -45c14.667 -22 22 -46.333 22 -73c0 -50 -15.333 -90 -46 -120c-46 -45.333 -125 -68 -237 -68c-38 0 -75.667 2.5 -113 7.5s-76.333 12.5 -117 22.5
v147c36 -10.667 68.5 -18.667 97.5 -24s55.833 -8 80.5 -8c33.333 0 56 1.33301 68 4c24 5.33301 36 16.333 36 33c0 16 -13.333 29.667 -40 41c-7.33301 3.33301 -25.333 10 -54 20c-78 27.333 -131 51.666 -159 72.999c-42 32 -63 75.667 -63 131
c0 31.333 9.16699 59.833 27.5 85.5s44.166 44.5 77.499 56.5c-24 11.333 -42.167 27.333 -54.5 48s-18.5 44 -18.5 70c0 46.667 15.667 85 47 115c42.667 40.667 109.667 61 201 61c46 0 87 -2.33301 123 -7s68 -11 96 -19v-144c-39.333 9.33301 -71.833 15.833 -97.5 19.5
s-48.5 5.5 -68.5 5.5c-20.667 0 -35 -1.33301 -43 -4c-18 -6 -27 -18 -27 -36c0 -16 13.667 -28.667 41 -38l56 -18c70.667 -24.667 117.667 -45 141 -61c48.667 -33.333 73 -79.333 73 -138zM416 244.002c0 17.333 -8.33203 33 -24.999 47c-12.667 10 -47 26.667 -103 50
l-37 15c-10 -6 -18.167 -13.5 -24.5 -22.5s-9.5 -18.167 -9.5 -27.5c0 -26 16.667 -48.333 50 -67c15.333 -8.66699 46.666 -20.667 93.999 -36l28 -9c18 16 27 32.667 27 50z" />
    <glyph glyph-name="dieresis" unicode="&#xa8;" horiz-adv-x="700" 
d="M575 747h-180v156h180v-156zM311 747h-180v156h180v-156zM668 0h-618v700h611v-165h-343v-101h328v-160h-328v-109h350v-165z" />
    <glyph glyph-name="dieresis" unicode="&#x401;" horiz-adv-x="700" 
d="M575 747h-180v156h180v-156zM311 747h-180v156h180v-156zM668 0h-618v700h611v-165h-343v-101h328v-160h-328v-109h350v-165z" />
    <glyph glyph-name="copyright" unicode="&#xa9;" horiz-adv-x="842" 
d="M802 349c0 -100 -37.167 -185.167 -111.5 -255.5s-164.166 -105.5 -269.499 -105.5s-195.166 35.167 -269.499 105.5s-111.5 155.5 -111.5 255.5s37.167 185.167 111.5 255.5s164.166 105.5 269.499 105.5s195.166 -35.167 269.499 -105.5s111.5 -155.5 111.5 -255.5z
M663 349c0 67.333 -23.5 124.5 -70.5 171.5s-104.167 70.5 -171.5 70.5s-124.5 -23.5 -171.5 -70.5s-70.5 -104.167 -70.5 -171.5s23.5 -124.5 70.5 -171.5s104.167 -70.5 171.5 -70.5s124.5 23.5 171.5 70.5s70.5 104.167 70.5 171.5zM550 166
c-20 -6 -39.501 -10.667 -58.501 -14s-39.167 -5 -60.5 -5c-66 0 -116.5 19 -151.5 57s-52.5 88.667 -52.5 152c0 59.333 18.167 106.5 54.5 141.5s86.166 52.5 149.499 52.5c20.667 0 39.334 -1 56.001 -3s36.667 -6.33301 60 -13v-114
c-11.333 6.66699 -23.666 11.5 -36.999 14.5s-25 4.5 -35 4.5c-22 0 -39.333 -5.33301 -52 -16c-17.333 -14.667 -26 -38 -26 -70c0 -28 6 -50 18 -66c14.667 -19.333 34.667 -29 60 -29c26.667 0 51.667 7.66699 75 23v-115z" />
    <glyph glyph-name="ordfeminine" unicode="&#xaa;" horiz-adv-x="679" 
d="M649 16c-30.667 -8 -63.5 -14.666 -98.5 -19.999s-69.167 -8 -102.5 -8c-139.333 0 -246.333 38.333 -321 115c-64.667 66 -97 148.333 -97 247c0 55.333 10.333 106.666 31 153.999c26.667 61.333 68.334 109.333 125.001 144c70 42.667 159.667 64 269 64
c25.333 0 51.833 -1.16699 79.5 -3.5s60.834 -7.5 99.501 -15.5l15 -3v-185c-20.667 8.66699 -45.834 16.167 -75.501 22.5s-56.834 9.5 -81.501 9.5c-58 0 -103.667 -14 -137 -42c-21.333 -18 -36.666 -41 -45.999 -69h242v-143h-242c9.33301 -34 29.5 -61.333 60.5 -82
s69.833 -31 116.5 -31c27.333 0 53.666 2.33301 78.999 7s53.333 13 84 25v-186z" />
    <glyph glyph-name="ordfeminine" unicode="&#x404;" horiz-adv-x="679" 
d="M649 16c-30.667 -8 -63.5 -14.666 -98.5 -19.999s-69.167 -8 -102.5 -8c-139.333 0 -246.333 38.333 -321 115c-64.667 66 -97 148.333 -97 247c0 55.333 10.333 106.666 31 153.999c26.667 61.333 68.334 109.333 125.001 144c70 42.667 159.667 64 269 64
c25.333 0 51.833 -1.16699 79.5 -3.5s60.834 -7.5 99.501 -15.5l15 -3v-185c-20.667 8.66699 -45.834 16.167 -75.501 22.5s-56.834 9.5 -81.501 9.5c-58 0 -103.667 -14 -137 -42c-21.333 -18 -36.666 -41 -45.999 -69h242v-143h-242c9.33301 -34 29.5 -61.333 60.5 -82
s69.833 -31 116.5 -31c27.333 0 53.666 2.33301 78.999 7s53.333 13 84 25v-186z" />
    <glyph glyph-name="guillemotleft" unicode="&#xab;" horiz-adv-x="650" 
d="M604 54h-193l-114 216l113 216h194l-90 -216zM332 54h-193l-114 216l113 216h194l-90 -216z" />
    <glyph glyph-name="logicalnot" unicode="&#xac;" horiz-adv-x="736" 
d="M676 173h-125v117h-491v123h616v-240z" />
    <glyph glyph-name="minus" unicode="&#xad;" horiz-adv-x="406" 
d="M358 183h-310v174h310v-174z" />
    <glyph glyph-name="registered" unicode="&#xae;" horiz-adv-x="842" 
d="M803 350c0 -100 -37.333 -185.333 -112 -256s-164.667 -106 -270 -106c-106 0 -196.167 35.167 -270.5 105.5s-111.5 155.833 -111.5 256.5c0 100 37.333 185.333 112 256s164.667 106 270 106c106 0 196.167 -35.167 270.5 -105.5s111.5 -155.833 111.5 -256.5zM666 350
c0 67.333 -24 125 -72 173s-105.667 72 -173 72s-125 -24 -173 -72s-72 -105.667 -72 -173s24 -125 72 -173s105.667 -72 173 -72s125 24 173 72s72 105.667 72 173zM591 200h-125.001l-11 78c-2 11.333 -6.66699 19.333 -14 24s-15.333 7 -24 7h-28v-109h-119v312h186
c34.667 0 61.334 -4 80.001 -12c30 -13.333 45 -37 45 -71c0 -24 -6.5 -42.5 -19.5 -55.5s-29.5 -21.167 -49.5 -24.5c14 -1.33301 26.333 -7.5 37 -18.5s17.667 -24.167 21 -39.5zM461.999 410c0 14 -4.66699 22.833 -14 26.5s-20 5.5 -32 5.5h-32v-66h29
c16.667 0 29 2.83301 37 8.5s12 14.167 12 25.5z" />
    <glyph glyph-name="macron" unicode="&#xaf;" horiz-adv-x="604" 
d="M554 750h-209v157h209v-157zM259 750h-209v157h209v-157zM436 0h-268v700h268v-700z" />
    <glyph glyph-name="macron" unicode="&#x407;" horiz-adv-x="604" 
d="M554 750h-209v157h209v-157zM259 750h-209v157h209v-157zM436 0h-268v700h268v-700z" />
    <glyph glyph-name="degree" unicode="&#xb0;" horiz-adv-x="404" 
d="M364 550c0 -44.667 -15.833 -82.834 -47.5 -114.501s-69.834 -47.5 -114.501 -47.5s-82.834 15.833 -114.501 47.5s-47.5 69.834 -47.5 114.501s15.833 82.834 47.5 114.501s69.834 47.5 114.501 47.5s82.834 -15.833 114.501 -47.5s47.5 -69.834 47.5 -114.501zM274 550
c0 20 -7 37 -21 51s-31 21 -51 21s-37 -7 -51 -21s-21 -31 -21 -51s7 -37 21 -51s31 -21 51 -21s37 7 51 21s21 31 21 51z" />
    <glyph glyph-name="plusminus" unicode="&#xb1;" horiz-adv-x="600" 
d="M552 291h-171v-81h-162v81h-171v162h171v81h162v-81h171v-162zM552 30h-504v162h504v-162z" />
    <glyph glyph-name="twosuperior" unicode="&#xb2;" horiz-adv-x="378" 
d="M323 0h-268v700h268v-700z" />
    <glyph glyph-name="twosuperior" unicode="&#x406;" horiz-adv-x="378" 
d="M323 0h-268v700h268v-700z" />
    <glyph glyph-name="threesuperior" unicode="&#xb3;" horiz-adv-x="352" 
d="M302 579h-252v175h252v-175zM302 0h-252v524h252v-524z" />
    <glyph glyph-name="threesuperior" unicode="&#x456;" horiz-adv-x="352" 
d="M302 579h-252v175h252v-175zM302 0h-252v524h252v-524z" />
    <glyph glyph-name="acute" unicode="&#xb4;" horiz-adv-x="528" 
d="M493 378h-195v-378h-248v525h229v86h214v-233z" />
    <glyph glyph-name="acute" unicode="&#x491;" horiz-adv-x="528" 
d="M493 378h-195v-378h-248v525h229v86h214v-233z" />
    <glyph glyph-name="mu" unicode="&#xb5;" horiz-adv-x="685" 
d="M639 0h-237.999v90c-14.667 -26.667 -27.334 -45 -38.001 -55c-18 -17.333 -39 -29 -63 -35v-222h-254v743h252v-300c0 -22 1.66699 -37.333 5 -46c6 -16.667 19 -25 39 -25s33.333 8.33301 40 25c3.33301 8.66699 5 24 5 46v300h252v-521z" />
    <glyph glyph-name="paragraph" unicode="&#xb6;" horiz-adv-x="622" 
d="M582 -159l-139 0.000976562v755h-65v-755h-138v509h-17c-56.667 0 -104 14 -142 42c-42 31.333 -63 74.666 -63 129.999c0 73.333 30.667 124 92 152c38 17.333 89.667 26 155 26h317v-859z" />
    <glyph glyph-name="periodcentered" unicode="&#xb7;" horiz-adv-x="314" 
d="M266 183h-218v193h218v-193z" />
    <glyph glyph-name="periodcentered" unicode="&#x2219;" horiz-adv-x="314" 
d="M266 183h-218v193h218v-193z" />
    <glyph glyph-name="cedilla" unicode="&#xb8;" horiz-adv-x="633" 
d="M565 597h-181v157h181v-157zM300 597h-181v157h181v-157zM616 201h-350c0 -22.667 8 -41 24 -55c22 -18.667 56.667 -28 104 -28c31.333 0 60.333 2.66699 87 8s59 14.666 97 27.999v-136c-37.333 -10 -77 -17.5 -119 -22.5s-81 -7.5 -117 -7.5
c-122 0 -210.333 33.333 -265 100c-40 48.667 -60 109.667 -60 183c0 72.667 24 133.334 72 182.001c54.667 55.333 131 83 229 83s172.167 -26.167 222.5 -78.5s75.5 -127.5 75.5 -225.5v-31zM396 308l-0.000976562 8.99902c0 33.333 -7.33301 58.333 -22 75
c-11.333 12.667 -25.666 19 -42.999 19c-15.333 0 -28.333 -4.66699 -39 -14c-17.333 -15.333 -26 -41.666 -26 -78.999v-10h130z" />
    <glyph glyph-name="cedilla" unicode="&#x451;" horiz-adv-x="633" 
d="M565 597h-181v157h181v-157zM300 597h-181v157h181v-157zM616 201h-350c0 -22.667 8 -41 24 -55c22 -18.667 56.667 -28 104 -28c31.333 0 60.333 2.66699 87 8s59 14.666 97 27.999v-136c-37.333 -10 -77 -17.5 -119 -22.5s-81 -7.5 -117 -7.5
c-122 0 -210.333 33.333 -265 100c-40 48.667 -60 109.667 -60 183c0 72.667 24 133.334 72 182.001c54.667 55.333 131 83 229 83s172.167 -26.167 222.5 -78.5s75.5 -127.5 75.5 -225.5v-31zM396 308l-0.000976562 8.99902c0 33.333 -7.33301 58.333 -22 75
c-11.333 12.667 -25.666 19 -42.999 19c-15.333 0 -28.333 -4.66699 -39 -14c-17.333 -15.333 -26 -41.666 -26 -78.999v-10h130z" />
    <glyph glyph-name="onesuperior" unicode="&#xb9;" horiz-adv-x="1210" 
d="M1165 504c0 -55.333 -10 -99.666 -30 -132.999c-30 -50 -80 -75 -150 -75s-119.667 24.667 -149 74c-20.667 34.667 -31 79.334 -31 134.001c0 55.333 10 99.666 30 132.999c30 50 80 75 150 75s119.667 -24.667 149 -74c20.667 -34.667 31 -79.334 31 -134.001zM1165 29
h-360v174h360v-174zM738 0h-356l-121 497l-3 -497h-208v700h359l117 -483h4v483h208v-700zM1025 504l0.000976562 18c0 28 -1.66699 46.667 -5 56c-5.33301 16 -17 24 -35 24c-16.667 0 -27.5 -6.83301 -32.5 -20.5s-7.5 -33.5 -7.5 -59.5v-18c0 -36.667 1 -59 3 -67
c5.33301 -20.667 17.666 -31 36.999 -31c18.667 0 30.667 10.333 36 31c2.66699 10.667 4 33 4 67z" />
    <glyph glyph-name="onesuperior" unicode="&#x2116;" horiz-adv-x="1210" 
d="M1165 504c0 -55.333 -10 -99.666 -30 -132.999c-30 -50 -80 -75 -150 -75s-119.667 24.667 -149 74c-20.667 34.667 -31 79.334 -31 134.001c0 55.333 10 99.666 30 132.999c30 50 80 75 150 75s119.667 -24.667 149 -74c20.667 -34.667 31 -79.334 31 -134.001zM1165 29
h-360v174h360v-174zM738 0h-356l-121 497l-3 -497h-208v700h359l117 -483h4v483h208v-700zM1025 504l0.000976562 18c0 28 -1.66699 46.667 -5 56c-5.33301 16 -17 24 -35 24c-16.667 0 -27.5 -6.83301 -32.5 -20.5s-7.5 -33.5 -7.5 -59.5v-18c0 -36.667 1 -59 3 -67
c5.33301 -20.667 17.666 -31 36.999 -31c18.667 0 30.667 10.333 36 31c2.66699 10.667 4 33 4 67z" />
    <glyph glyph-name="ordmasculine" unicode="&#xba;" horiz-adv-x="563" 
d="M536 20c-34.667 -12 -68.833 -20.333 -102.5 -25s-65.5 -7 -95.5 -7c-105.333 0 -186.333 28 -243 84c-50.667 50 -76 115.667 -76 197c0 75.333 25.333 137.333 76 186c56.667 54 136.667 81 240 81c40 0 80.333 -4 121 -12c28 -5.33301 53.333 -12 76 -20v-136
c-18.667 10.667 -38.334 18.834 -59.001 24.501s-42 8.5 -64 8.5c-34.667 0 -64 -7.33301 -88 -22s-40 -36.334 -48 -65.001h189v-94h-189c4 -30 17.333 -53.667 40 -71s52.334 -26 89.001 -26c46 0 90.667 11.667 134 35v-138z" />
    <glyph glyph-name="ordmasculine" unicode="&#x454;" horiz-adv-x="563" 
d="M536 20c-34.667 -12 -68.833 -20.333 -102.5 -25s-65.5 -7 -95.5 -7c-105.333 0 -186.333 28 -243 84c-50.667 50 -76 115.667 -76 197c0 75.333 25.333 137.333 76 186c56.667 54 136.667 81 240 81c40 0 80.333 -4 121 -12c28 -5.33301 53.333 -12 76 -20v-136
c-18.667 10.667 -38.334 18.834 -59.001 24.501s-42 8.5 -64 8.5c-34.667 0 -64 -7.33301 -88 -22s-40 -36.334 -48 -65.001h189v-94h-189c4 -30 17.333 -53.667 40 -71s52.334 -26 89.001 -26c46 0 90.667 11.667 134 35v-138z" />
    <glyph glyph-name="guillemotright" unicode="&#xbb;" horiz-adv-x="649" 
d="M624 270l-113 -216h-193l90 216l-90 216h193zM352 270l-113 -216h-193l90 216l-90 216h193z" />
    <glyph glyph-name="onequarter" unicode="&#xbc;" horiz-adv-x="353" 
d="M303 579h-252v175h252v-175zM303 -32c0 -63.333 -16.168 -112.333 -48.501 -147s-80.5 -52 -144.5 -52c-25.333 0 -50.5 1.16699 -75.5 3.5s-51.167 6.5 -78.5 12.5v153c14 -4.66699 27.667 -7 41 -7c18.667 0 32.334 5 41.001 15s13 26.667 13 50v528h252v-556z" />
    <glyph glyph-name="onequarter" unicode="&#x458;" horiz-adv-x="353" 
d="M303 579h-252v175h252v-175zM303 -32c0 -63.333 -16.168 -112.333 -48.501 -147s-80.5 -52 -144.5 -52c-25.333 0 -50.5 1.16699 -75.5 3.5s-51.167 6.5 -78.5 12.5v153c14 -4.66699 27.667 -7 41 -7c18.667 0 32.334 5 41.001 15s13 26.667 13 50v528h252v-556z" />
    <glyph glyph-name="onehalf" unicode="&#xbd;" horiz-adv-x="687" 
d="M662 223c0 -59.333 -18.666 -108.332 -55.999 -146.999c-56.667 -58.667 -151.667 -88 -285 -88c-43.333 0 -89.666 2.33301 -138.999 7s-99.333 13.334 -150 26.001v182c34 -13.333 71.333 -24.5 112 -33.5s83.667 -13.5 129 -13.5c43.333 0 74.166 4.33301 92.499 13
s27.5 20.667 27.5 36c0 18 -12.333 31.333 -37 40c-8 2.66699 -33.667 8.66699 -77 18c-77.333 16 -132 34 -164 54c-60 36.667 -90 92.667 -90 168c0 62 22.667 112 68 150c60.667 51.333 158 77 292 77c39.333 0 77.166 -1.83301 113.499 -5.5
s75.833 -9.83398 118.5 -18.501v-180c-26 10 -54 18 -84 24c-39.333 8 -80.666 12 -123.999 12c-36.667 0 -62.334 -2 -77.001 -6c-25.333 -6.66699 -38 -20.334 -38 -41.001c0 -17.333 13 -30 39 -38c12.667 -4 28.667 -7.66699 48 -11c60.667 -11.333 103 -21 127 -29
c48.667 -16 85 -37.333 109 -64c30 -32.667 45 -76.667 45 -132z" />
    <glyph glyph-name="onehalf" unicode="&#x405;" horiz-adv-x="687" 
d="M662 223c0 -59.333 -18.666 -108.332 -55.999 -146.999c-56.667 -58.667 -151.667 -88 -285 -88c-43.333 0 -89.666 2.33301 -138.999 7s-99.333 13.334 -150 26.001v182c34 -13.333 71.333 -24.5 112 -33.5s83.667 -13.5 129 -13.5c43.333 0 74.166 4.33301 92.499 13
s27.5 20.667 27.5 36c0 18 -12.333 31.333 -37 40c-8 2.66699 -33.667 8.66699 -77 18c-77.333 16 -132 34 -164 54c-60 36.667 -90 92.667 -90 168c0 62 22.667 112 68 150c60.667 51.333 158 77 292 77c39.333 0 77.166 -1.83301 113.499 -5.5
s75.833 -9.83398 118.5 -18.501v-180c-26 10 -54 18 -84 24c-39.333 8 -80.666 12 -123.999 12c-36.667 0 -62.334 -2 -77.001 -6c-25.333 -6.66699 -38 -20.334 -38 -41.001c0 -17.333 13 -30 39 -38c12.667 -4 28.667 -7.66699 48 -11c60.667 -11.333 103 -21 127 -29
c48.667 -16 85 -37.333 109 -64c30 -32.667 45 -76.667 45 -132z" />
    <glyph glyph-name="threequarters" unicode="&#xbe;" horiz-adv-x="568" 
d="M551 176c0 -47.333 -17.666 -86.998 -52.999 -118.998c-50.667 -46 -133.334 -69 -248.001 -69c-31.333 0 -64 2 -98 6s-72.333 12 -115 24v144c27.333 -12 54.333 -21.333 81 -28c36 -9.33301 71 -14 105 -14c61.333 0 92 11.667 92 35c0 16 -16 26.333 -48 31l-45 6
c-66 11.333 -113.667 26.666 -143 45.999c-41.333 26.667 -62 66.667 -62 120c0 54 20.667 95.667 62 125c49.333 35.333 128.333 53 237 53c28.667 0 57.5 -1.5 86.5 -4.5s63.167 -8.83301 102.5 -17.5v-138c-57.333 18.667 -112.333 28 -165 28
c-26 0 -47 -2.16699 -63 -6.5s-24 -13.833 -24 -28.5c0 -16.667 29.333 -27.834 88 -33.501s103.667 -16.5 135 -32.5c50 -26 75 -68.333 75 -127z" />
    <glyph glyph-name="threequarters" unicode="&#x455;" horiz-adv-x="568" 
d="M551 176c0 -47.333 -17.666 -86.998 -52.999 -118.998c-50.667 -46 -133.334 -69 -248.001 -69c-31.333 0 -64 2 -98 6s-72.333 12 -115 24v144c27.333 -12 54.333 -21.333 81 -28c36 -9.33301 71 -14 105 -14c61.333 0 92 11.667 92 35c0 16 -16 26.333 -48 31l-45 6
c-66 11.333 -113.667 26.666 -143 45.999c-41.333 26.667 -62 66.667 -62 120c0 54 20.667 95.667 62 125c49.333 35.333 128.333 53 237 53c28.667 0 57.5 -1.5 86.5 -4.5s63.167 -8.83301 102.5 -17.5v-138c-57.333 18.667 -112.333 28 -165 28
c-26 0 -47 -2.16699 -63 -6.5s-24 -13.833 -24 -28.5c0 -16.667 29.333 -27.834 88 -33.501s103.667 -16.5 135 -32.5c50 -26 75 -68.333 75 -127z" />
    <glyph glyph-name="questiondown" unicode="&#xbf;" horiz-adv-x="456" 
d="M451 579h-189v175h189v-175zM194 579h-189v175h189v-175zM354 0h-252v524h252v-524z" />
    <glyph glyph-name="questiondown" unicode="&#x457;" horiz-adv-x="456" 
d="M451 579h-189v175h189v-175zM194 579h-189v175h189v-175zM354 0h-252v524h252v-524z" />
    <glyph glyph-name="Agrave" unicode="&#xc0;" horiz-adv-x="825" 
d="M840 0h-282l-48 151h-210l-47 -151h-268l245 700h361zM480 315l-73 219h-4l-72 -219h149z" />
    <glyph glyph-name="Agrave" unicode="&#x410;" horiz-adv-x="825" 
d="M840 0h-282l-48 151h-210l-47 -151h-268l245 700h361zM480 315l-73 219h-4l-72 -219h149z" />
    <glyph glyph-name="Aacute" unicode="&#xc1;" horiz-adv-x="782" 
d="M746 214c0 -59.333 -18.666 -107 -55.999 -143c-48.667 -47.333 -126.334 -71 -233.001 -71h-407v700h623v-175h-355v-97h163c90 0 158.333 -22.333 205 -67c40 -38.667 60 -87.667 60 -147zM472.001 216c0 20 -7 36.667 -21 50c-16.667 16 -39 24 -67 24h-73v-148h78
c25.333 0 45.5 6.83301 60.5 20.5s22.5 31.5 22.5 53.5z" />
    <glyph glyph-name="Aacute" unicode="&#x411;" horiz-adv-x="782" 
d="M746 214c0 -59.333 -18.666 -107 -55.999 -143c-48.667 -47.333 -126.334 -71 -233.001 -71h-407v700h623v-175h-355v-97h163c90 0 158.333 -22.333 205 -67c40 -38.667 60 -87.667 60 -147zM472.001 216c0 20 -7 36.667 -21 50c-16.667 16 -39 24 -67 24h-73v-148h78
c25.333 0 45.5 6.83301 60.5 20.5s22.5 31.5 22.5 53.5z" />
    <glyph glyph-name="Acircumflex" unicode="&#xc2;" horiz-adv-x="782" 
d="M746 187c0 -76.667 -37 -130 -111 -160c-44.667 -18 -104 -27 -178 -27h-407v700h421c96.667 0 167 -22 211 -66c32 -32 48 -70.667 48 -116c0 -40 -12.833 -74.833 -38.5 -104.5s-60.167 -48.5 -103.5 -56.5v-4c42 -6 77 -21 105 -45c35.333 -30.667 53 -71 53 -121z
M468 491c0 18 -6.33301 32.667 -19 44c-16.667 15.333 -42 23 -76 23h-69v-135h63c40 0 68.333 8.66699 85 26c10.667 11.333 16 25.333 16 42zM472 214c0 23.333 -9 41 -27 53s-44.333 18 -79 18h-62v-143h68c38 0 65.333 8.66699 82 26c12 12.667 18 28 18 46z" />
    <glyph glyph-name="Acircumflex" unicode="&#x412;" horiz-adv-x="782" 
d="M746 187c0 -76.667 -37 -130 -111 -160c-44.667 -18 -104 -27 -178 -27h-407v700h421c96.667 0 167 -22 211 -66c32 -32 48 -70.667 48 -116c0 -40 -12.833 -74.833 -38.5 -104.5s-60.167 -48.5 -103.5 -56.5v-4c42 -6 77 -21 105 -45c35.333 -30.667 53 -71 53 -121z
M468 491c0 18 -6.33301 32.667 -19 44c-16.667 15.333 -42 23 -76 23h-69v-135h63c40 0 68.333 8.66699 85 26c10.667 11.333 16 25.333 16 42zM472 214c0 23.333 -9 41 -27 53s-44.333 18 -79 18h-62v-143h68c38 0 65.333 8.66699 82 26c12 12.667 18 28 18 46z" />
    <glyph glyph-name="Atilde" unicode="&#xc3;" horiz-adv-x="673" 
d="M623 500h-305v-500h-268v700h573v-200z" />
    <glyph glyph-name="Atilde" unicode="&#x413;" horiz-adv-x="673" 
d="M623 500h-305v-500h-268v700h573v-200z" />
    <glyph glyph-name="Adieresis" unicode="&#xc4;" horiz-adv-x="887" 
d="M867 -155l-268 0.000976562v155h-311v-155h-268v342h54c41.333 41.333 69 90.666 83 147.999c8.66699 35.333 13 82.333 13 141v224h623v-513h74v-342zM525 187.001v333h-119v-85c0 -54 -4 -97.333 -12 -130c-10 -42 -29 -81.333 -57 -118h188z" />
    <glyph glyph-name="Adieresis" unicode="&#x414;" horiz-adv-x="887" 
d="M867 -155l-268 0.000976562v155h-311v-155h-268v342h54c41.333 41.333 69 90.666 83 147.999c8.66699 35.333 13 82.333 13 141v224h623v-513h74v-342zM525 187.001v333h-119v-85c0 -54 -4 -97.333 -12 -130c-10 -42 -29 -81.333 -57 -118h188z" />
    <glyph glyph-name="Aring" unicode="&#xc5;" horiz-adv-x="700" 
d="M668 0h-618v700h611v-165h-343v-101h328v-160h-328v-109h350v-165z" />
    <glyph glyph-name="Aring" unicode="&#x415;" horiz-adv-x="700" 
d="M668 0h-618v700h611v-165h-343v-101h328v-160h-328v-109h350v-165z" />
    <glyph glyph-name="AE" unicode="&#xc6;" horiz-adv-x="1234" 
d="M1229 0h-320l-157 317h-6v-317h-258v317h-6l-157 -317h-320l250 372l-220 328h290l157 -295h6v295h258v-295h6l157 295h290l-220 -328z" />
    <glyph glyph-name="AE" unicode="&#x416;" horiz-adv-x="1234" 
d="M1229 0h-320l-157 317h-6v-317h-258v317h-6l-157 -317h-320l250 372l-220 328h290l157 -295h6v295h258v-295h6l157 295h290l-220 -328z" />
    <glyph glyph-name="Ccedilla" unicode="&#xc7;" horiz-adv-x="689" 
d="M672 199c0 -56 -21.665 -101.664 -64.998 -136.997c-60.667 -49.333 -159.667 -74 -297 -74c-56.667 0 -104.167 2.66699 -142.5 8s-80.833 13.666 -127.5 24.999v182c35.333 -14 74.333 -25.333 117 -34s83 -13 121 -13c41.333 0 71.666 7.66699 90.999 23
c14 11.333 21 25 21 41c0 18.667 -6.33301 33.667 -19 45c-17.333 15.333 -45.666 23 -84.999 23h-130v138h127c26 0 46.667 2.66699 62 8c26.667 9.33301 40 26.333 40 51c0 23.333 -14.333 39.666 -43 48.999c-20 6.66699 -45.667 10 -77 10
c-34 0 -67.833 -2.83301 -101.5 -8.5s-68.834 -14.834 -105.501 -27.501v177c79.333 18 167.666 27 264.999 27c126.667 0 217 -24.333 271 -73c37.333 -34 56 -77.667 56 -131c0 -36 -11.333 -68 -34 -96c-25.333 -30.667 -59.333 -49 -102 -55v-4
c44 -4 80.667 -19 110 -45c32 -28.667 48 -65 48 -109z" />
    <glyph glyph-name="Ccedilla" unicode="&#x417;" horiz-adv-x="689" 
d="M672 199c0 -56 -21.665 -101.664 -64.998 -136.997c-60.667 -49.333 -159.667 -74 -297 -74c-56.667 0 -104.167 2.66699 -142.5 8s-80.833 13.666 -127.5 24.999v182c35.333 -14 74.333 -25.333 117 -34s83 -13 121 -13c41.333 0 71.666 7.66699 90.999 23
c14 11.333 21 25 21 41c0 18.667 -6.33301 33.667 -19 45c-17.333 15.333 -45.666 23 -84.999 23h-130v138h127c26 0 46.667 2.66699 62 8c26.667 9.33301 40 26.333 40 51c0 23.333 -14.333 39.666 -43 48.999c-20 6.66699 -45.667 10 -77 10
c-34 0 -67.833 -2.83301 -101.5 -8.5s-68.834 -14.834 -105.501 -27.501v177c79.333 18 167.666 27 264.999 27c126.667 0 217 -24.333 271 -73c37.333 -34 56 -77.667 56 -131c0 -36 -11.333 -68 -34 -96c-25.333 -30.667 -59.333 -49 -102 -55v-4
c44 -4 80.667 -19 110 -45c32 -28.667 48 -65 48 -109z" />
    <glyph glyph-name="Egrave" unicode="&#xc8;" horiz-adv-x="862" 
d="M812 0h-268v392h-4l-177 -392h-313v700h268v-400h4l177 400h313v-700z" />
    <glyph glyph-name="Egrave" unicode="&#x418;" horiz-adv-x="862" 
d="M812 0h-268v392h-4l-177 -392h-313v700h268v-400h4l177 400h313v-700z" />
    <glyph glyph-name="Eacute" unicode="&#xc9;" horiz-adv-x="862" 
d="M661 900c-7.33301 -49.333 -31.1699 -87.166 -71.5029 -113.499s-93.166 -39.5 -158.499 -39.5s-118.166 13.167 -158.499 39.5s-64.166 64.166 -71.499 113.499l123 26c0 -22 11.333 -38.333 34 -49c18.667 -8.66699 43 -13 73 -13c31.333 0 57 5 77 15s30 25.667 30 47
zM811.996 0h-268v392h-4l-177 -392h-313v700h268v-400h4l177 400h313v-700z" />
    <glyph glyph-name="Eacute" unicode="&#x419;" horiz-adv-x="862" 
d="M661 900c-7.33301 -49.333 -31.1699 -87.166 -71.5029 -113.499s-93.166 -39.5 -158.499 -39.5s-118.166 13.167 -158.499 39.5s-64.166 64.166 -71.499 113.499l123 26c0 -22 11.333 -38.333 34 -49c18.667 -8.66699 43 -13 73 -13c31.333 0 57 5 77 15s30 25.667 30 47
zM811.996 0h-268v392h-4l-177 -392h-313v700h268v-400h4l177 400h313v-700z" />
    <glyph glyph-name="Ecircumflex" unicode="&#xca;" horiz-adv-x="826" 
d="M814 0h-320l-172 297h-4v-297h-268v700h268v-275h4l165 275h305l-236 -328z" />
    <glyph glyph-name="Ecircumflex" unicode="&#x41a;" horiz-adv-x="826" 
d="M814 0h-320l-172 297h-4v-297h-268v700h268v-275h4l165 275h305l-236 -328z" />
    <glyph glyph-name="Edieresis" unicode="&#xcb;" horiz-adv-x="839" 
d="M789 0h-268.001v510h-130v-120c0 -94.667 -3.33301 -162.667 -10 -204c-10.667 -65.333 -32 -113.333 -64 -144c-38 -36 -95 -54 -171 -54c-43.333 0 -88.666 5.66699 -135.999 17v180c0.666992 0 9 -1.16699 25 -3.5s27.333 -3.5 34 -3.5c36 0 60.667 22.333 74 67
c9.33301 32 14 81.667 14 149c0 12 -0.166992 24 -0.5 36s-0.5 24.333 -0.5 37v10v223h633v-700z" />
    <glyph glyph-name="Edieresis" unicode="&#x41b;" horiz-adv-x="839" 
d="M789 0h-268.001v510h-130v-120c0 -94.667 -3.33301 -162.667 -10 -204c-10.667 -65.333 -32 -113.333 -64 -144c-38 -36 -95 -54 -171 -54c-43.333 0 -88.666 5.66699 -135.999 17v180c0.666992 0 9 -1.16699 25 -3.5s27.333 -3.5 34 -3.5c36 0 60.667 22.333 74 67
c9.33301 32 14 81.667 14 149c0 12 -0.166992 24 -0.5 36s-0.5 24.333 -0.5 37v10v223h633v-700z" />
    <glyph glyph-name="Igrave" unicode="&#xcc;" horiz-adv-x="1076" 
d="M1026 0h-240v550h-6l-138 -550h-223l-134 550h-7v-550h-228v700h397l91 -383h5l87 383h396v-700z" />
    <glyph glyph-name="Igrave" unicode="&#x41c;" horiz-adv-x="1076" 
d="M1026 0h-240v550h-6l-138 -550h-223l-134 550h-7v-550h-228v700h397l91 -383h5l87 383h396v-700z" />
    <glyph glyph-name="Iacute" unicode="&#xcd;" horiz-adv-x="815" 
d="M765 0h-268v258h-179v-258h-268v700h268v-242h179v242h268v-700z" />
    <glyph glyph-name="Iacute" unicode="&#x41d;" horiz-adv-x="815" 
d="M765 0h-268v258h-179v-258h-268v700h268v-242h179v242h268v-700z" />
    <glyph glyph-name="Icircumflex" unicode="&#xce;" horiz-adv-x="820" 
d="M800 350c0 -112.667 -34.167 -201.167 -102.5 -265.5s-164.166 -96.5 -287.499 -96.5s-219.166 32.167 -287.499 96.5s-102.5 152.833 -102.5 265.5s34.167 201.167 102.5 265.5s164.166 96.5 287.499 96.5s219.166 -32.167 287.499 -96.5s102.5 -152.833 102.5 -265.5z
M518 350c0 53.333 -5.33301 94.666 -16 123.999c-17.333 46.667 -48 70 -92 70c-44.667 0 -75.334 -23 -92.001 -69c-10.667 -29.333 -16 -71 -16 -125c0 -53.333 5.33301 -94.666 16 -123.999c17.333 -46.667 48 -70 92 -70c44.667 0 75.334 23 92.001 69
c10.667 29.333 16 71 16 125z" />
    <glyph glyph-name="Icircumflex" unicode="&#x41e;" horiz-adv-x="820" 
d="M800 350c0 -112.667 -34.167 -201.167 -102.5 -265.5s-164.166 -96.5 -287.499 -96.5s-219.166 32.167 -287.499 96.5s-102.5 152.833 -102.5 265.5s34.167 201.167 102.5 265.5s164.166 96.5 287.499 96.5s219.166 -32.167 287.499 -96.5s102.5 -152.833 102.5 -265.5z
M518 350c0 53.333 -5.33301 94.666 -16 123.999c-17.333 46.667 -48 70 -92 70c-44.667 0 -75.334 -23 -92.001 -69c-10.667 -29.333 -16 -71 -16 -125c0 -53.333 5.33301 -94.666 16 -123.999c17.333 -46.667 48 -70 92 -70c44.667 0 75.334 23 92.001 69
c10.667 29.333 16 71 16 125z" />
    <glyph glyph-name="Idieresis" unicode="&#xcf;" horiz-adv-x="811" 
d="M761 0h-268v510h-175v-510h-268v700h711v-700z" />
    <glyph glyph-name="Idieresis" unicode="&#x41f;" horiz-adv-x="811" 
d="M761 0h-268v510h-175v-510h-268v700h711v-700z" />
    <glyph glyph-name="Eth" unicode="&#xd0;" horiz-adv-x="792" 
d="M763 449c0 -64.667 -22.333 -119.667 -67 -165c-54 -54.667 -131 -82 -231 -82h-147v-202h-268v700h410c99.333 0 176 -25.667 230 -77c48.667 -46 73 -104 73 -174zM493 451c0 25.333 -7.66602 45 -22.999 59c-20.667 18.667 -54.334 28 -101.001 28h-58v-174h59
c30.667 0 55 3.66699 73 11c33.333 14 50 39.333 50 76z" />
    <glyph glyph-name="Eth" unicode="&#x420;" horiz-adv-x="792" 
d="M763 449c0 -64.667 -22.333 -119.667 -67 -165c-54 -54.667 -131 -82 -231 -82h-147v-202h-268v700h410c99.333 0 176 -25.667 230 -77c48.667 -46 73 -104 73 -174zM493 451c0 25.333 -7.66602 45 -22.999 59c-20.667 18.667 -54.334 28 -101.001 28h-58v-174h59
c30.667 0 55 3.66699 73 11c33.333 14 50 39.333 50 76z" />
    <glyph glyph-name="Ntilde" unicode="&#xd1;" horiz-adv-x="654" 
d="M634 16c-36 -10 -70.667 -17.167 -104 -21.5s-64 -6.5 -92 -6.5c-132.667 0 -236.334 34 -311.001 102c-71.333 64.667 -107 151.334 -107 260.001c0 101.333 31.667 184 95 248c75.333 76 185.333 114 330 114c35.333 0 69.666 -2.33301 102.999 -7
c10 -1.33301 32.667 -5.33301 68 -12l16 -3v-185c-20 8 -42.167 14.5 -66.5 19.5s-49.166 7.5 -74.499 7.5c-56 0 -101.5 -16.5 -136.5 -49.5s-52.5 -75.167 -52.5 -126.5c0 -46 11.333 -84.333 34 -115c32.667 -44 86 -66 160 -66c18.667 0 37.334 1.66699 56.001 5
s46 10.666 82 21.999v-186z" />
    <glyph glyph-name="Ntilde" unicode="&#x421;" horiz-adv-x="654" 
d="M634 16c-36 -10 -70.667 -17.167 -104 -21.5s-64 -6.5 -92 -6.5c-132.667 0 -236.334 34 -311.001 102c-71.333 64.667 -107 151.334 -107 260.001c0 101.333 31.667 184 95 248c75.333 76 185.333 114 330 114c35.333 0 69.666 -2.33301 102.999 -7
c10 -1.33301 32.667 -5.33301 68 -12l16 -3v-185c-20 8 -42.167 14.5 -66.5 19.5s-49.166 7.5 -74.499 7.5c-56 0 -101.5 -16.5 -136.5 -49.5s-52.5 -75.167 -52.5 -126.5c0 -46 11.333 -84.333 34 -115c32.667 -44 86 -66 160 -66c18.667 0 37.334 1.66699 56.001 5
s46 10.666 82 21.999v-186z" />
    <glyph glyph-name="Ograve" unicode="&#xd2;" horiz-adv-x="760" 
d="M750 493h-236v-493h-268v493h-236v207h740v-207z" />
    <glyph glyph-name="Ograve" unicode="&#x422;" horiz-adv-x="760" 
d="M750 493h-236v-493h-268v493h-236v207h740v-207z" />
    <glyph glyph-name="Oacute" unicode="&#xd3;" horiz-adv-x="739" 
d="M753 700l-222.998 -528.999c-22 -52 -47.667 -91.667 -77 -119c-46 -42.667 -106.667 -64 -182 -64c-26.667 0 -56 2.16699 -88 6.5s-63 10.166 -93 17.499v177c21.333 -6.66699 38.666 -11 51.999 -13s26 -3 38 -3c17.333 0 29.666 2.16699 36.999 6.5
s11 10.833 11 19.5c0 2.66699 -0.333008 7 -1 13s-5.66699 18 -15 36l-226 452h305l98 -303h4l96 303h264z" />
    <glyph glyph-name="Oacute" unicode="&#x423;" horiz-adv-x="739" 
d="M753 700l-222.998 -528.999c-22 -52 -47.667 -91.667 -77 -119c-46 -42.667 -106.667 -64 -182 -64c-26.667 0 -56 2.16699 -88 6.5s-63 10.166 -93 17.499v177c21.333 -6.66699 38.666 -11 51.999 -13s26 -3 38 -3c17.333 0 29.666 2.16699 36.999 6.5
s11 10.833 11 19.5c0 2.66699 -0.333008 7 -1 13s-5.66699 18 -15 36l-226 452h305l98 -303h4l96 303h264z" />
    <glyph glyph-name="Ocircumflex" unicode="&#xd4;" horiz-adv-x="1000" 
d="M980 371c0 -86 -27.833 -152.666 -83.5 -199.999s-129.5 -71 -221.5 -71h-41v-112h-268v112h-41c-92 0 -165.333 23 -220 69c-56.667 48 -85 115.333 -85 202c0 80 25.333 144.333 76 193c54.667 52 130.667 78 228 78h42v105h268v-105h42c97.333 0 173 -25.667 227 -77
c51.333 -48.667 77 -113.334 77 -194.001zM730 371.001c0 32.667 -8.66797 59.334 -26.001 80.001s-39.666 31 -66.999 31h-15v-222h16c27.333 0 49.5 10.167 66.5 30.5s25.5 47.166 25.5 80.499zM377.999 260.001v222h-15c-28 0 -50.5 -10.167 -67.5 -30.5
s-25.5 -47.166 -25.5 -80.499c0 -32.667 8.66699 -59.334 26 -80.001s39.333 -31 66 -31h16z" />
    <glyph glyph-name="Ocircumflex" unicode="&#x424;" horiz-adv-x="1000" 
d="M980 371c0 -86 -27.833 -152.666 -83.5 -199.999s-129.5 -71 -221.5 -71h-41v-112h-268v112h-41c-92 0 -165.333 23 -220 69c-56.667 48 -85 115.333 -85 202c0 80 25.333 144.333 76 193c54.667 52 130.667 78 228 78h42v105h268v-105h42c97.333 0 173 -25.667 227 -77
c51.333 -48.667 77 -113.334 77 -194.001zM730 371.001c0 32.667 -8.66797 59.334 -26.001 80.001s-39.666 31 -66.999 31h-15v-222h16c27.333 0 49.5 10.167 66.5 30.5s25.5 47.166 25.5 80.499zM377.999 260.001v222h-15c-28 0 -50.5 -10.167 -67.5 -30.5
s-25.5 -47.166 -25.5 -80.499c0 -32.667 8.66699 -59.334 26 -80.001s39.333 -31 66 -31h16z" />
    <glyph glyph-name="Otilde" unicode="&#xd5;" horiz-adv-x="835" 
d="M846 0h-312l-128 237h-4l-121 -237h-292l248 359l-218 341h310l101 -207h4l111 207h283l-234 -341z" />
    <glyph glyph-name="Otilde" unicode="&#x425;" horiz-adv-x="835" 
d="M846 0h-312l-128 237h-4l-121 -237h-292l248 359l-218 341h310l101 -207h4l111 207h283l-234 -341z" />
    <glyph glyph-name="Odieresis" unicode="&#xd6;" horiz-adv-x="855" 
d="M835 -150h-268v150h-517v700h268v-500h175v500h268v-500h74v-350z" />
    <glyph glyph-name="Odieresis" unicode="&#x426;" horiz-adv-x="855" 
d="M835 -150h-268v150h-517v700h268v-500h175v500h268v-500h74v-350z" />
    <glyph glyph-name="multiply" unicode="&#xd7;" horiz-adv-x="798" 
d="M748 0h-268.002v241c-38 -6.66699 -58.333 -10.334 -61 -11.001c-46 -7.33301 -84 -11 -114 -11c-110 0 -186 29.333 -228 88c-24.667 34.667 -37 79.334 -37 134.001v259h268v-223c0 -24.667 9.66699 -41.667 29 -51c12 -6 27.333 -9 46 -9
c16.667 0 32.834 1.5 48.501 4.5s31.834 7.5 48.501 13.5v265h268v-700z" />
    <glyph glyph-name="multiply" unicode="&#x427;" horiz-adv-x="798" 
d="M748 0h-268.002v241c-38 -6.66699 -58.333 -10.334 -61 -11.001c-46 -7.33301 -84 -11 -114 -11c-110 0 -186 29.333 -228 88c-24.667 34.667 -37 79.334 -37 134.001v259h268v-223c0 -24.667 9.66699 -41.667 29 -51c12 -6 27.333 -9 46 -9
c16.667 0 32.834 1.5 48.501 4.5s31.834 7.5 48.501 13.5v265h268v-700z" />
    <glyph glyph-name="Oslash" unicode="&#xd8;" horiz-adv-x="1124" 
d="M1074 0h-1024v700h258v-500h125v500h258v-500h125v500h258v-700z" />
    <glyph glyph-name="Oslash" unicode="&#x428;" horiz-adv-x="1124" 
d="M1074 0h-1024v700h258v-500h125v500h258v-500h125v500h258v-700z" />
    <glyph glyph-name="Ugrave" unicode="&#xd9;" horiz-adv-x="1148" 
d="M1128 -150h-258v150h-820v700h258v-500h115v500h258v-500h115v500h258v-500h74v-350z" />
    <glyph glyph-name="Ugrave" unicode="&#x429;" horiz-adv-x="1148" 
d="M1128 -150h-258v150h-820v700h258v-500h115v500h258v-500h115v500h258v-500h74v-350z" />
    <glyph glyph-name="Uacute" unicode="&#xda;" horiz-adv-x="885" 
d="M856 249c0 -71.333 -22.668 -129.333 -68.001 -174c-51.333 -50 -124.333 -75 -219 -75h-419v498h-110v202h378v-202h151c94.667 0 167.334 -24.667 218.001 -74c46 -44.667 69 -103 69 -175zM585.999 249c0 28 -10.168 49.5 -30.501 64.5s-50.166 22.5 -89.499 22.5h-55
v-174h54c31.333 0 56 4 74 12c31.333 14 47 39 47 75z" />
    <glyph glyph-name="Uacute" unicode="&#x42a;" horiz-adv-x="885" 
d="M856 249c0 -71.333 -22.668 -129.333 -68.001 -174c-51.333 -50 -124.333 -75 -219 -75h-419v498h-110v202h378v-202h151c94.667 0 167.334 -24.667 218.001 -74c46 -44.667 69 -103 69 -175zM585.999 249c0 28 -10.168 49.5 -30.501 64.5s-50.166 22.5 -89.499 22.5h-55
v-174h54c31.333 0 56 4 74 12c31.333 14 47 39 47 75z" />
    <glyph glyph-name="Ucircumflex" unicode="&#xdb;" horiz-adv-x="1122" 
d="M1072 0h-268v700h268v-700zM749 249c0 -71.333 -22.667 -129.333 -68 -174c-50.667 -50 -122.667 -75 -216 -75h-415v700h268v-202h147c94 0 166 -24.667 216 -74c45.333 -44.667 68 -103 68 -175zM479 249c0 26 -7.33301 46.001 -22 60.001c-18.667 18 -49 27 -91 27
h-55v-174h54c38 0 66.5 7.16699 85.5 21.5s28.5 36.166 28.5 65.499z" />
    <glyph glyph-name="Ucircumflex" unicode="&#x42b;" horiz-adv-x="1122" 
d="M1072 0h-268v700h268v-700zM749 249c0 -71.333 -22.667 -129.333 -68 -174c-50.667 -50 -122.667 -75 -216 -75h-415v700h268v-202h147c94 0 166 -24.667 216 -74c45.333 -44.667 68 -103 68 -175zM479 249c0 26 -7.33301 46.001 -22 60.001c-18.667 18 -49 27 -91 27
h-55v-174h54c38 0 66.5 7.16699 85.5 21.5s28.5 36.166 28.5 65.499z" />
    <glyph glyph-name="Udieresis" unicode="&#xdc;" horiz-adv-x="786" 
d="M756 249c0 -71.333 -22.668 -129.333 -68.001 -174c-51.333 -50 -124.333 -75 -219 -75h-419v700h268v-202h151c94.667 0 167.334 -24.667 218.001 -74c46 -44.667 69 -103 69 -175zM485.999 249c0 28 -10.168 49.5 -30.501 64.5s-50.166 22.5 -89.499 22.5h-55v-174h54
c31.333 0 56 4 74 12c31.333 14 47 39 47 75z" />
    <glyph glyph-name="Udieresis" unicode="&#x42c;" horiz-adv-x="786" 
d="M756 249c0 -71.333 -22.668 -129.333 -68.001 -174c-51.333 -50 -124.333 -75 -219 -75h-419v700h268v-202h151c94.667 0 167.334 -24.667 218.001 -74c46 -44.667 69 -103 69 -175zM485.999 249c0 28 -10.168 49.5 -30.501 64.5s-50.166 22.5 -89.499 22.5h-55v-174h54
c31.333 0 56 4 74 12c31.333 14 47 39 47 75z" />
    <glyph glyph-name="Yacute" unicode="&#xdd;" horiz-adv-x="679" 
d="M649 350c0 -99.333 -31.998 -181.667 -95.998 -247c-74.667 -76.667 -182 -115 -322 -115c-36.667 0 -69.834 2.16699 -99.501 6.5s-63.5 11.5 -101.5 21.5v186c26.667 -10 54.5 -17.833 83.5 -23.5s55.5 -8.5 79.5 -8.5c48 0 87 10 117 30s50 47.667 60 83h-242v143h242
c-9.33301 28.667 -24.333 51.667 -45 69c-33.333 28 -79.333 42 -138 42c-20.667 0 -44.5 -2.16699 -71.5 -6.5s-55.5 -12.833 -85.5 -25.5v185l15 3c38 8 70.5 13.167 97.5 15.5s54.167 3.5 81.5 3.5c109.333 0 198.666 -21 267.999 -63
c57.333 -34.667 99.333 -82.667 126 -144c20.667 -47.333 31 -99 31 -155z" />
    <glyph glyph-name="Yacute" unicode="&#x42d;" horiz-adv-x="679" 
d="M649 350c0 -99.333 -31.998 -181.667 -95.998 -247c-74.667 -76.667 -182 -115 -322 -115c-36.667 0 -69.834 2.16699 -99.501 6.5s-63.5 11.5 -101.5 21.5v186c26.667 -10 54.5 -17.833 83.5 -23.5s55.5 -8.5 79.5 -8.5c48 0 87 10 117 30s50 47.667 60 83h-242v143h242
c-9.33301 28.667 -24.333 51.667 -45 69c-33.333 28 -79.333 42 -138 42c-20.667 0 -44.5 -2.16699 -71.5 -6.5s-55.5 -12.833 -85.5 -25.5v185l15 3c38 8 70.5 13.167 97.5 15.5s54.167 3.5 81.5 3.5c109.333 0 198.666 -21 267.999 -63
c57.333 -34.667 99.333 -82.667 126 -144c20.667 -47.333 31 -99 31 -155z" />
    <glyph glyph-name="Thorn" unicode="&#xde;" horiz-adv-x="1174" 
d="M1154 350c0 -112.667 -34.166 -201.166 -102.499 -265.499s-164.166 -96.5 -287.499 -96.5c-98.667 0 -181.334 23.667 -248.001 71c-69.333 49.333 -109.333 115.666 -120 198.999h-78v-258h-268v700h268v-242h81c14 80.667 56.333 144 127 190
c66 42.667 145.333 64 238 64c123.333 0 219.166 -32.167 287.499 -96.5s102.5 -152.833 102.5 -265.5zM872.001 350.001c0 53.333 -5.33301 94.666 -16 123.999c-17.333 46.667 -48 70 -92 70c-44.667 0 -75.334 -23 -92.001 -69c-10.667 -29.333 -16 -71 -16 -125
c0 -53.333 5.33301 -94.666 16 -123.999c17.333 -46.667 48 -70 92 -70c44.667 0 75.334 23 92.001 69c10.667 29.333 16 71 16 125z" />
    <glyph glyph-name="Thorn" unicode="&#x42e;" horiz-adv-x="1174" 
d="M1154 350c0 -112.667 -34.166 -201.166 -102.499 -265.499s-164.166 -96.5 -287.499 -96.5c-98.667 0 -181.334 23.667 -248.001 71c-69.333 49.333 -109.333 115.666 -120 198.999h-78v-258h-268v700h268v-242h81c14 80.667 56.333 144 127 190
c66 42.667 145.333 64 238 64c123.333 0 219.166 -32.167 287.499 -96.5s102.5 -152.833 102.5 -265.5zM872.001 350.001c0 53.333 -5.33301 94.666 -16 123.999c-17.333 46.667 -48 70 -92 70c-44.667 0 -75.334 -23 -92.001 -69c-10.667 -29.333 -16 -71 -16 -125
c0 -53.333 5.33301 -94.666 16 -123.999c17.333 -46.667 48 -70 92 -70c44.667 0 75.334 23 92.001 69c10.667 29.333 16 71 16 125z" />
    <glyph glyph-name="germandbls" unicode="&#xdf;" horiz-adv-x="788" 
d="M771 0l-268 -0.00195312v244h-60c-27.333 0 -47.833 -6.16699 -61.5 -18.5s-22.167 -29.166 -25.5 -50.499l-26 -175h-280l46 203c9.33301 42 29 74 59 96c22.667 16.667 49 27.334 79 32.001c-48 8.66699 -86.667 28.334 -116 59.001c-32 33.333 -48 74.333 -48 123
c0 77.333 34.667 130.666 104 159.999c42.667 18 102 27 178 27h419v-700zM515 393.998v149.999h-70c-27.333 0 -48.333 -3 -63 -9c-28 -11.333 -42 -32.666 -42 -63.999c0 -25.333 9.16699 -44.5 27.5 -57.5s45.5 -19.5 81.5 -19.5h66z" />
    <glyph glyph-name="germandbls" unicode="&#x42f;" horiz-adv-x="788" 
d="M771 0l-268 -0.00195312v244h-60c-27.333 0 -47.833 -6.16699 -61.5 -18.5s-22.167 -29.166 -25.5 -50.499l-26 -175h-280l46 203c9.33301 42 29 74 59 96c22.667 16.667 49 27.334 79 32.001c-48 8.66699 -86.667 28.334 -116 59.001c-32 33.333 -48 74.333 -48 123
c0 77.333 34.667 130.666 104 159.999c42.667 18 102 27 178 27h419v-700zM515 393.998v149.999h-70c-27.333 0 -48.333 -3 -63 -9c-28 -11.333 -42 -32.666 -42 -63.999c0 -25.333 9.16699 -44.5 27.5 -57.5s45.5 -19.5 81.5 -19.5h66z" />
    <glyph glyph-name="agrave" unicode="&#xe0;" horiz-adv-x="650" 
d="M614 0l-230.001 0.000976562v64h-4c-22.667 -30 -52 -51 -88 -63c-26 -8.66699 -57.333 -13 -94 -13c-59.333 0 -105.333 15.333 -138 46c-30 28 -45 65 -45 111c0 55.333 19 97.666 57 126.999c31.333 24.667 75 41 131 49c32.667 4.66699 81.334 7 146.001 7h35v16
c0 24 -14 41.333 -42 52c-21.333 8 -48 12 -80 12c-17.333 0 -36.666 -1.66699 -57.999 -5c-42 -6.66699 -83.667 -18.667 -125 -36v137c38.667 10 79.5 17.833 122.5 23.5s84.5 8.5 124.5 8.5c81.333 0 146.666 -14 195.999 -42c61.333 -34.667 92 -88 92 -160v-334z
M383.999 199.001v29.001h-13c-43.333 0 -73.5 -4.83301 -90.5 -14.5s-25.5 -25.834 -25.5 -48.501c0 -14.667 5.33301 -26.667 16 -36s25 -14 43 -14c19.333 0 35.833 7 49.5 21s20.5 35 20.5 63z" />
    <glyph glyph-name="agrave" unicode="&#x430;" horiz-adv-x="650" 
d="M614 0l-230.001 0.000976562v64h-4c-22.667 -30 -52 -51 -88 -63c-26 -8.66699 -57.333 -13 -94 -13c-59.333 0 -105.333 15.333 -138 46c-30 28 -45 65 -45 111c0 55.333 19 97.666 57 126.999c31.333 24.667 75 41 131 49c32.667 4.66699 81.334 7 146.001 7h35v16
c0 24 -14 41.333 -42 52c-21.333 8 -48 12 -80 12c-17.333 0 -36.666 -1.66699 -57.999 -5c-42 -6.66699 -83.667 -18.667 -125 -36v137c38.667 10 79.5 17.833 122.5 23.5s84.5 8.5 124.5 8.5c81.333 0 146.666 -14 195.999 -42c61.333 -34.667 92 -88 92 -160v-334z
M383.999 199.001v29.001h-13c-43.333 0 -73.5 -4.83301 -90.5 -14.5s-25.5 -25.834 -25.5 -48.501c0 -14.667 5.33301 -26.667 16 -36s25 -14 43 -14c19.333 0 35.833 7 49.5 21s20.5 35 20.5 63z" />
    <glyph glyph-name="aacute" unicode="&#xe1;" horiz-adv-x="705" 
d="M680 242c0 -86.667 -34 -152.332 -102 -196.999c-57.333 -38 -131.666 -57 -222.999 -57c-54 0 -99 5.66699 -135 17c-57.333 18 -102 50.333 -134 97c-40.667 58.667 -61 138.667 -61 240c0 79.333 10.833 146.166 32.5 200.499s56 97.333 103 129
s111.833 52.167 194.5 61.5l131 12.5c30 3 54.667 6.66699 74 11s42 12.166 68 23.499v-181c-20 -10.667 -40.667 -18.667 -62 -24c-14.667 -3.33301 -41.834 -6.5 -81.501 -9.5s-74.167 -5.5 -103.5 -7.5s-56.666 -7 -81.999 -15c-42 -13.333 -72 -35.666 -90 -66.999
c-12 -20.667 -18 -43.667 -18 -69v-15h7c24 35.333 53 59.833 87 73.5s72.667 20.5 116 20.5c87.333 0 155.666 -21.667 204.999 -65s74 -103 74 -179zM410 242.002c0 30.667 -2.66699 53.667 -8 69c-8 23.333 -23.667 35 -47 35c-22.667 0 -38.334 -11.667 -47.001 -35
c-5.33301 -14.667 -8 -37.667 -8 -69c0 -30.667 2.66699 -53.667 8 -69c8 -23.333 23.667 -35 47 -35c22.667 0 38.334 11.667 47.001 35c5.33301 14.667 8 37.667 8 69z" />
    <glyph glyph-name="aacute" unicode="&#x431;" horiz-adv-x="705" 
d="M680 242c0 -86.667 -34 -152.332 -102 -196.999c-57.333 -38 -131.666 -57 -222.999 -57c-54 0 -99 5.66699 -135 17c-57.333 18 -102 50.333 -134 97c-40.667 58.667 -61 138.667 -61 240c0 79.333 10.833 146.166 32.5 200.499s56 97.333 103 129
s111.833 52.167 194.5 61.5l131 12.5c30 3 54.667 6.66699 74 11s42 12.166 68 23.499v-181c-20 -10.667 -40.667 -18.667 -62 -24c-14.667 -3.33301 -41.834 -6.5 -81.501 -9.5s-74.167 -5.5 -103.5 -7.5s-56.666 -7 -81.999 -15c-42 -13.333 -72 -35.666 -90 -66.999
c-12 -20.667 -18 -43.667 -18 -69v-15h7c24 35.333 53 59.833 87 73.5s72.667 20.5 116 20.5c87.333 0 155.666 -21.667 204.999 -65s74 -103 74 -179zM410 242.002c0 30.667 -2.66699 53.667 -8 69c-8 23.333 -23.667 35 -47 35c-22.667 0 -38.334 -11.667 -47.001 -35
c-5.33301 -14.667 -8 -37.667 -8 -69c0 -30.667 2.66699 -53.667 8 -69c8 -23.333 23.667 -35 47 -35c22.667 0 38.334 11.667 47.001 35c5.33301 14.667 8 37.667 8 69z" />
    <glyph glyph-name="acircumflex" unicode="&#xe2;" horiz-adv-x="662" 
d="M626 144c0 -44 -17.001 -79.001 -51.001 -105.001s-80 -39 -138 -39h-387v525h390c46.667 0 84.334 -10.333 113.001 -31c32 -23.333 48 -55.666 48 -96.999c0 -37.333 -13.333 -67.333 -40 -90c-16.667 -14 -36.667 -24 -60 -30c32 -6 58 -16.667 78 -32
c31.333 -24 47 -57.667 47 -101zM377.999 367.999c0 17.333 -6.16699 29.167 -18.5 35.5s-28.5 9.5 -48.5 9.5h-31v-92h31c18.667 0 32.667 2 42 6c16.667 7.33301 25 21 25 41zM387.999 164c0 21.333 -8.99902 36 -26.999 44c-12 5.33301 -27 8 -45 8h-36v-104h36
c19.333 0 34.666 2.66699 45.999 8c17.333 8 26 22.667 26 44z" />
    <glyph glyph-name="acircumflex" unicode="&#x432;" horiz-adv-x="662" 
d="M626 144c0 -44 -17.001 -79.001 -51.001 -105.001s-80 -39 -138 -39h-387v525h390c46.667 0 84.334 -10.333 113.001 -31c32 -23.333 48 -55.666 48 -96.999c0 -37.333 -13.333 -67.333 -40 -90c-16.667 -14 -36.667 -24 -60 -30c32 -6 58 -16.667 78 -32
c31.333 -24 47 -57.667 47 -101zM377.999 367.999c0 17.333 -6.16699 29.167 -18.5 35.5s-28.5 9.5 -48.5 9.5h-31v-92h31c18.667 0 32.667 2 42 6c16.667 7.33301 25 21 25 41zM387.999 164c0 21.333 -8.99902 36 -26.999 44c-12 5.33301 -27 8 -45 8h-36v-104h36
c19.333 0 34.666 2.66699 45.999 8c17.333 8 26 22.667 26 44z" />
    <glyph glyph-name="atilde" unicode="&#xe3;" horiz-adv-x="521" 
d="M486 374h-184v-374h-252v525h436v-151z" />
    <glyph glyph-name="atilde" unicode="&#x433;" horiz-adv-x="521" 
d="M486 374h-184v-374h-252v525h436v-151z" />
    <glyph glyph-name="adieresis" unicode="&#xe4;" horiz-adv-x="739" 
d="M722 -145l-228 -0.000976562v145h-251v-145h-228v295h62c28 26.667 46.333 59.334 55 98.001c5.33301 23.333 8 58 8 104v172h511v-374h71v-295zM423 149.999v224.001h-84v-55c0 -36 -2 -63.667 -6 -83c-6 -30.667 -18.667 -59.334 -38 -86.001h128z" />
    <glyph glyph-name="adieresis" unicode="&#x434;" horiz-adv-x="739" 
d="M722 -145l-228 -0.000976562v145h-251v-145h-228v295h62c28 26.667 46.333 59.334 55 98.001c5.33301 23.333 8 58 8 104v172h511v-374h71v-295zM423 149.999v224.001h-84v-55c0 -36 -2 -63.667 -6 -83c-6 -30.667 -18.667 -59.334 -38 -86.001h128z" />
    <glyph glyph-name="aring" unicode="&#xe5;" horiz-adv-x="633" 
d="M616 201l-350 0.000976562c0 -22.667 8 -41 24 -55c22 -18.667 56.667 -28 104 -28c31.333 0 60.333 2.66699 87 8s59 14.666 97 27.999v-136c-37.333 -10 -77 -17.5 -119 -22.5s-81 -7.5 -117 -7.5c-122 0 -210.333 33.333 -265 100c-40 48.667 -60 109.667 -60 183
c0 80.667 28 145 84 193s129 72 219 72c80 0 145.333 -18.667 196 -56c66.667 -49.333 100 -127.333 100 -234v-45zM396 308.001l-0.000976562 8.99902c0 33.333 -7.33301 58.333 -22 75c-11.333 12.667 -25.666 19 -42.999 19c-15.333 0 -28.333 -4.66699 -39 -14
c-17.333 -15.333 -26 -41.666 -26 -78.999v-10h130z" />
    <glyph glyph-name="aring" unicode="&#x435;" horiz-adv-x="633" 
d="M616 201l-350 0.000976562c0 -22.667 8 -41 24 -55c22 -18.667 56.667 -28 104 -28c31.333 0 60.333 2.66699 87 8s59 14.666 97 27.999v-136c-37.333 -10 -77 -17.5 -119 -22.5s-81 -7.5 -117 -7.5c-122 0 -210.333 33.333 -265 100c-40 48.667 -60 109.667 -60 183
c0 80.667 28 145 84 193s129 72 219 72c80 0 145.333 -18.667 196 -56c66.667 -49.333 100 -127.333 100 -234v-45zM396 308.001l-0.000976562 8.99902c0 33.333 -7.33301 58.333 -22 75c-11.333 12.667 -25.666 19 -42.999 19c-15.333 0 -28.333 -4.66699 -39 -14
c-17.333 -15.333 -26 -41.666 -26 -78.999v-10h130z" />
    <glyph glyph-name="ae" unicode="&#xe6;" horiz-adv-x="1006" 
d="M996 0h-249l-127 231h-4v-231h-226v231h-4l-127 -231h-249l166 267l-166 258h250l126 -230h4v230h226v-230h4l126 230h250l-166 -258z" />
    <glyph glyph-name="ae" unicode="&#x436;" horiz-adv-x="1006" 
d="M996 0h-249l-127 231h-4v-231h-226v231h-4l-127 -231h-249l166 267l-166 258h250l126 -230h4v230h226v-230h4l126 230h250l-166 -258z" />
    <glyph glyph-name="ccedilla" unicode="&#xe7;" horiz-adv-x="571" 
d="M554 155c0 -43.333 -18.667 -79.334 -56 -108.001c-51.333 -39.333 -132.666 -59 -243.999 -59c-50.667 0 -93.167 2.66699 -127.5 8s-69.833 13.333 -106.5 24v138c27.333 -11.333 57 -21 89 -29s61.667 -12 89 -12c32 0 55 5.5 69 16.5s21 23.5 21 37.5
c0 18.667 -9 31.667 -27 39c-12 4.66699 -27.667 7 -47 7h-85v100h98c26 0 44.333 5.33301 55 16c7.33301 7.33301 11 16.333 11 27c0 14 -6 25 -18 33c-14.667 10 -37.334 15 -68.001 15c-27.333 0 -55 -2.5 -83 -7.5s-58.667 -15.833 -92 -32.5v136
c42 12 83.333 20.333 124 25s81 7 121 7c95.333 0 164.333 -17.667 207 -53c30.667 -25.333 46 -56.666 46 -93.999c0 -26 -6.66699 -49 -20 -69c-15.333 -22.667 -38 -37.667 -68 -45c33.333 -5.33301 60.333 -19 81 -41s31 -48.333 31 -79z" />
    <glyph glyph-name="ccedilla" unicode="&#x437;" horiz-adv-x="571" 
d="M554 155c0 -43.333 -18.667 -79.334 -56 -108.001c-51.333 -39.333 -132.666 -59 -243.999 -59c-50.667 0 -93.167 2.66699 -127.5 8s-69.833 13.333 -106.5 24v138c27.333 -11.333 57 -21 89 -29s61.667 -12 89 -12c32 0 55 5.5 69 16.5s21 23.5 21 37.5
c0 18.667 -9 31.667 -27 39c-12 4.66699 -27.667 7 -47 7h-85v100h98c26 0 44.333 5.33301 55 16c7.33301 7.33301 11 16.333 11 27c0 14 -6 25 -18 33c-14.667 10 -37.334 15 -68.001 15c-27.333 0 -55 -2.5 -83 -7.5s-58.667 -15.833 -92 -32.5v136
c42 12 83.333 20.333 124 25s81 7 121 7c95.333 0 164.333 -17.667 207 -53c30.667 -25.333 46 -56.666 46 -93.999c0 -26 -6.66699 -49 -20 -69c-15.333 -22.667 -38 -37.667 -68 -45c33.333 -5.33301 60.333 -19 81 -41s31 -48.333 31 -79z" />
    <glyph glyph-name="egrave" unicode="&#xe8;" horiz-adv-x="699" 
d="M649 0h-230v245h-5l-115 -245h-249v524h230v-245h5l117 245h247v-524z" />
    <glyph glyph-name="egrave" unicode="&#x438;" horiz-adv-x="699" 
d="M649 0h-230v245h-5l-115 -245h-249v524h230v-245h5l117 245h247v-524z" />
    <glyph glyph-name="eacute" unicode="&#xe9;" horiz-adv-x="699" 
d="M548 732c-5.33301 -42 -23.001 -75.332 -53.001 -99.999c-35.333 -29.333 -84 -44 -146 -44c-61.333 0 -109.666 14.667 -144.999 44c-30.667 25.333 -48.667 58.666 -54 99.999l106 25c0 -14.667 5.33301 -27 16 -37c16 -14.667 41.667 -22 77 -22
c26.667 0 48 4.33301 64 13c19.333 10.667 29 26 29 46zM648.999 0.000976562h-230v245h-5l-115 -245h-249v524h230v-245h5l117 245h247v-524z" />
    <glyph glyph-name="eacute" unicode="&#x439;" horiz-adv-x="699" 
d="M548 732c-5.33301 -42 -23.001 -75.332 -53.001 -99.999c-35.333 -29.333 -84 -44 -146 -44c-61.333 0 -109.666 14.667 -144.999 44c-30.667 25.333 -48.667 58.666 -54 99.999l106 25c0 -14.667 5.33301 -27 16 -37c16 -14.667 41.667 -22 77 -22
c26.667 0 48 4.33301 64 13c19.333 10.667 29 26 29 46zM648.999 0.000976562h-230v245h-5l-115 -245h-249v524h230v-245h5l117 245h247v-524z" />
    <glyph glyph-name="ecircumflex" unicode="&#xea;" horiz-adv-x="733" 
d="M723 0h-277l-144 231h-4v-231h-248v524h248v-229h4l143 229h278l-180 -257z" />
    <glyph glyph-name="ecircumflex" unicode="&#x43a;" horiz-adv-x="733" 
d="M723 0h-277l-144 231h-4v-231h-248v524h248v-229h4l143 229h278l-180 -257z" />
    <glyph glyph-name="edieresis" unicode="&#xeb;" horiz-adv-x="712" 
d="M662 0l-251.999 0.000976562v374h-86v-90c0 -116.667 -12.333 -195.167 -37 -235.5s-73.334 -60.5 -146.001 -60.5c-26.667 0 -50.167 1.16699 -70.5 3.5s-42.166 6.83301 -65.499 13.5l5 135c11.333 -4.66699 24.666 -7 39.999 -7c22 0 36.667 11.667 44 35
c5.33301 17.333 8 46.666 8 87.999v48v220h560v-524z" />
    <glyph glyph-name="edieresis" unicode="&#x43b;" horiz-adv-x="712" 
d="M662 0l-251.999 0.000976562v374h-86v-90c0 -116.667 -12.333 -195.167 -37 -235.5s-73.334 -60.5 -146.001 -60.5c-26.667 0 -50.167 1.16699 -70.5 3.5s-42.166 6.83301 -65.499 13.5l5 135c11.333 -4.66699 24.666 -7 39.999 -7c22 0 36.667 11.667 44 35
c5.33301 17.333 8 46.666 8 87.999v48v220h560v-524z" />
    <glyph glyph-name="igrave" unicode="&#xec;" horiz-adv-x="836" 
d="M786 0h-200v328h-6l-94 -328h-136l-94 328h-6v-328h-200v524h300l65 -227h6l65 227h300v-524z" />
    <glyph glyph-name="igrave" unicode="&#x43c;" horiz-adv-x="836" 
d="M786 0h-200v328h-6l-94 -328h-136l-94 328h-6v-328h-200v524h300l65 -227h6l65 227h300v-524z" />
    <glyph glyph-name="iacute" unicode="&#xed;" horiz-adv-x="694" 
d="M644 0h-252v193h-90v-193h-252v524h252v-181h90v181h252v-524z" />
    <glyph glyph-name="iacute" unicode="&#x43d;" horiz-adv-x="694" 
d="M644 0h-252v193h-90v-193h-252v524h252v-181h90v181h252v-524z" />
    <glyph glyph-name="icircumflex" unicode="&#xee;" horiz-adv-x="690" 
d="M670 262c0 -84.667 -29.167 -151.5 -87.5 -200.5s-137.5 -73.5 -237.5 -73.5s-179.167 24.333 -237.5 73s-87.5 115.667 -87.5 201c0 84.667 29.167 151.5 87.5 200.5s137.5 73.5 237.5 73.5s179.167 -24.333 237.5 -73s87.5 -115.667 87.5 -201zM400 262
c0 38.667 -2.33301 66 -7 82c-8 28 -24 42 -48 42s-40 -13.667 -48 -41c-4.66699 -16 -7 -43.667 -7 -83c0 -38.667 2.33301 -66 7 -82c8 -28 24 -42 48 -42s40 13.667 48 41c4.66699 16 7 43.667 7 83z" />
    <glyph glyph-name="icircumflex" unicode="&#x43e;" horiz-adv-x="690" 
d="M670 262c0 -84.667 -29.167 -151.5 -87.5 -200.5s-137.5 -73.5 -237.5 -73.5s-179.167 24.333 -237.5 73s-87.5 115.667 -87.5 201c0 84.667 29.167 151.5 87.5 200.5s137.5 73.5 237.5 73.5s179.167 -24.333 237.5 -73s87.5 -115.667 87.5 -201zM400 262
c0 38.667 -2.33301 66 -7 82c-8 28 -24 42 -48 42s-40 -13.667 -48 -41c-4.66699 -16 -7 -43.667 -7 -83c0 -38.667 2.33301 -66 7 -82c8 -28 24 -42 48 -42s40 13.667 48 41c4.66699 16 7 43.667 7 83z" />
    <glyph glyph-name="idieresis" unicode="&#xef;" horiz-adv-x="694" 
d="M644 0h-252v374h-90v-374h-252v524h594v-524z" />
    <glyph glyph-name="idieresis" unicode="&#x43f;" horiz-adv-x="694" 
d="M644 0h-252v374h-90v-374h-252v524h594v-524z" />
    <glyph glyph-name="eth" unicode="&#xf0;" horiz-adv-x="711" 
d="M691 253c0 -90 -24.3311 -158.332 -72.998 -204.999c-41.333 -40 -93.333 -60 -156 -60c-70 0 -123.333 26.333 -160 79v-286h-252v743h234v-89h4c33.333 67.333 88.666 101 165.999 101c63.333 0 115.666 -18.667 156.999 -56c53.333 -48.667 80 -124.334 80 -227.001z
M421.002 255.001c0 28.667 -3.33301 52 -10 70c-10 27.333 -27.667 41 -53 41s-43 -13.333 -53 -40c-6.66699 -17.333 -10 -41 -10 -71c0 -28.667 3.33301 -52 10 -70c10 -27.333 27.667 -41 53 -41s43 13.333 53 40c6.66699 17.333 10 41 10 71z" />
    <glyph glyph-name="eth" unicode="&#x440;" horiz-adv-x="711" 
d="M691 253c0 -90 -24.3311 -158.332 -72.998 -204.999c-41.333 -40 -93.333 -60 -156 -60c-70 0 -123.333 26.333 -160 79v-286h-252v743h234v-89h4c33.333 67.333 88.666 101 165.999 101c63.333 0 115.666 -18.667 156.999 -56c53.333 -48.667 80 -124.334 80 -227.001z
M421.002 255.001c0 28.667 -3.33301 52 -10 70c-10 27.333 -27.667 41 -53 41s-43 -13.333 -53 -40c-6.66699 -17.333 -10 -41 -10 -71c0 -28.667 3.33301 -52 10 -70c10 -27.333 27.667 -41 53 -41s43 13.333 53 40c6.66699 17.333 10 41 10 71z" />
    <glyph glyph-name="ntilde" unicode="&#xf1;" horiz-adv-x="559" 
d="M532 14c-31.333 -9.33301 -62.667 -15.9971 -94 -19.9971s-63 -6 -95 -6c-106 0 -187.667 27.333 -245 82c-52.667 50 -79 115 -79 195c0 71.333 21.333 130.666 64 177.999c56 62 141.667 93 257 93c40.667 0 77.334 -2.33301 110.001 -7
c18.667 -2.66699 44.667 -8.33398 78 -17.001v-150c-20 8.66699 -39.833 14.834 -59.5 18.501s-35.834 5.5 -48.501 5.5c-38.667 0 -70.167 -11.167 -94.5 -33.5s-36.5 -52.833 -36.5 -91.5c0 -36.667 11.667 -66.334 35 -89.001s55 -34 95 -34c16 0 32.5 1.66699 49.5 5
s38.167 10.666 63.5 21.999v-151z" />
    <glyph glyph-name="ntilde" unicode="&#x441;" horiz-adv-x="559" 
d="M532 14c-31.333 -9.33301 -62.667 -15.9971 -94 -19.9971s-63 -6 -95 -6c-106 0 -187.667 27.333 -245 82c-52.667 50 -79 115 -79 195c0 71.333 21.333 130.666 64 177.999c56 62 141.667 93 257 93c40.667 0 77.334 -2.33301 110.001 -7
c18.667 -2.66699 44.667 -8.33398 78 -17.001v-150c-20 8.66699 -39.833 14.834 -59.5 18.501s-35.834 5.5 -48.501 5.5c-38.667 0 -70.167 -11.167 -94.5 -33.5s-36.5 -52.833 -36.5 -91.5c0 -36.667 11.667 -66.334 35 -89.001s55 -34 95 -34c16 0 32.5 1.66699 49.5 5
s38.167 10.666 63.5 21.999v-151z" />
    <glyph glyph-name="ograve" unicode="&#xf2;" horiz-adv-x="552" 
d="M542 374h-140v-374h-252v374h-140v150h532v-150z" />
    <glyph glyph-name="ograve" unicode="&#x442;" horiz-adv-x="552" 
d="M542 374h-140v-374h-252v374h-140v150h532v-150z" />
    <glyph glyph-name="oacute" unicode="&#xf3;" horiz-adv-x="625" 
d="M633 524l-177.001 -544.999c-21.333 -66 -50 -115.333 -86 -148c-45.333 -41.333 -106.666 -62 -183.999 -62c-24.667 0 -51.167 1.66699 -79.5 5s-56.166 8.33301 -83.499 15v146c25.333 -6.66699 51 -10 77 -10c25.333 0 44.666 5.66699 57.999 17
c8.66699 7.33301 14.667 16.666 18 27.999l5 17l-194 537h261l72 -330l66 330h247z" />
    <glyph glyph-name="oacute" unicode="&#x443;" horiz-adv-x="625" 
d="M633 524l-177.001 -544.999c-21.333 -66 -50 -115.333 -86 -148c-45.333 -41.333 -106.666 -62 -183.999 -62c-24.667 0 -51.167 1.66699 -79.5 5s-56.166 8.33301 -83.499 15v146c25.333 -6.66699 51 -10 77 -10c25.333 0 44.666 5.66699 57.999 17
c8.66699 7.33301 14.667 16.666 18 27.999l5 17l-194 537h261l72 -330l66 330h247z" />
    <glyph glyph-name="ocircumflex" unicode="&#xf4;" horiz-adv-x="950" 
d="M930 262c0 -98.667 -23.333 -171.667 -70 -219c-36 -36.667 -80.333 -55 -133 -55c-21.333 0 -43 4 -65 12s-42.333 20.667 -61 38v-257h-252v257c-19.333 -18 -39.666 -30.833 -60.999 -38.5s-43 -11.5 -65 -11.5c-52.667 0 -96.667 18 -132 54
c-47.333 48 -71 121.333 -71 220s23.333 171.667 70 219c36 36.667 80.333 55 133 55c21.333 0 43 -4 65 -12s42.333 -20.667 61 -38v246h252v-246c19.333 18 39.666 30.833 60.999 38.5s43 11.5 65 11.5c52.667 0 96.667 -18 132 -54c47.333 -48 71 -121.333 71 -220z
M682 262c0 34.667 -2.66602 61 -7.99902 79c-8 28 -22.333 42 -43 42c-7.33301 0 -14.833 -1.33301 -22.5 -4s-15.834 -9 -24.501 -19v-196c8.66699 -10 16.834 -16.333 24.501 -19s15.167 -4 22.5 -4c15.333 0 27.666 9.16699 36.999 27.5s14 49.5 14 93.5zM366.001 164
l-0.000976562 196c-8.66699 10 -16.834 16.333 -24.501 19s-15.167 4 -22.5 4c-15.333 0 -27.666 -9.16699 -36.999 -27.5s-14 -49.5 -14 -93.5c0 -34.667 2.66699 -61 8 -79c8 -28 22.333 -42 43 -42c7.33301 0 14.833 1.33301 22.5 4s15.834 9 24.501 19z" />
    <glyph glyph-name="ocircumflex" unicode="&#x444;" horiz-adv-x="950" 
d="M930 262c0 -98.667 -23.333 -171.667 -70 -219c-36 -36.667 -80.333 -55 -133 -55c-21.333 0 -43 4 -65 12s-42.333 20.667 -61 38v-257h-252v257c-19.333 -18 -39.666 -30.833 -60.999 -38.5s-43 -11.5 -65 -11.5c-52.667 0 -96.667 18 -132 54
c-47.333 48 -71 121.333 -71 220s23.333 171.667 70 219c36 36.667 80.333 55 133 55c21.333 0 43 -4 65 -12s42.333 -20.667 61 -38v246h252v-246c19.333 18 39.666 30.833 60.999 38.5s43 11.5 65 11.5c52.667 0 96.667 -18 132 -54c47.333 -48 71 -121.333 71 -220z
M682 262c0 34.667 -2.66602 61 -7.99902 79c-8 28 -22.333 42 -43 42c-7.33301 0 -14.833 -1.33301 -22.5 -4s-15.834 -9 -24.501 -19v-196c8.66699 -10 16.834 -16.333 24.501 -19s15.167 -4 22.5 -4c15.333 0 27.666 9.16699 36.999 27.5s14 49.5 14 93.5zM366.001 164
l-0.000976562 196c-8.66699 10 -16.834 16.333 -24.501 19s-15.167 4 -22.5 4c-15.333 0 -27.666 -9.16699 -36.999 -27.5s-14 -49.5 -14 -93.5c0 -34.667 2.66699 -61 8 -79c8 -28 22.333 -42 43 -42c7.33301 0 14.833 1.33301 22.5 4s15.834 9 24.501 19z" />
    <glyph glyph-name="otilde" unicode="&#xf5;" horiz-adv-x="671" 
d="M683 0h-269l-81 176h-4l-82 -176h-259l172 282l-160 242h267l69 -163h4l67 163h249l-146 -238z" />
    <glyph glyph-name="otilde" unicode="&#x445;" horiz-adv-x="671" 
d="M683 0h-269l-81 176h-4l-82 -176h-259l172 282l-160 242h267l69 -163h4l67 163h249l-146 -238z" />
    <glyph glyph-name="odieresis" unicode="&#xf6;" horiz-adv-x="732" 
d="M715 -145h-228v145h-437v524h252v-374h90v374h252v-374h71v-295z" />
    <glyph glyph-name="odieresis" unicode="&#x446;" horiz-adv-x="732" 
d="M715 -145h-228v145h-437v524h252v-374h90v374h252v-374h71v-295z" />
    <glyph glyph-name="divide" unicode="&#xf7;" horiz-adv-x="674" 
d="M624 0h-251.998v184c-46.667 -13.333 -93.334 -20 -140.001 -20c-54.667 0 -98.334 11 -131.001 33c-40.667 27.333 -61 70 -61 128v199h252v-183c0 -6.66699 0.666992 -12 2 -16c4.66699 -14 17 -21 37 -21c13.333 0 27 4 41 12v208h252v-524z" />
    <glyph glyph-name="divide" unicode="&#x447;" horiz-adv-x="674" 
d="M624 0h-251.998v184c-46.667 -13.333 -93.334 -20 -140.001 -20c-54.667 0 -98.334 11 -131.001 33c-40.667 27.333 -61 70 -61 128v199h252v-183c0 -6.66699 0.666992 -12 2 -16c4.66699 -14 17 -21 37 -21c13.333 0 27 4 41 12v208h252v-524z" />
    <glyph glyph-name="oslash" unicode="&#xf8;" horiz-adv-x="955" 
d="M915 0h-865v524h235v-374h80v374h235v-374h80v374h235v-524z" />
    <glyph glyph-name="oslash" unicode="&#x448;" horiz-adv-x="955" 
d="M915 0h-865v524h235v-374h80v374h235v-374h80v374h235v-524z" />
    <glyph glyph-name="ugrave" unicode="&#xf9;" horiz-adv-x="1003" 
d="M986 -145h-228v145h-708v524h235v-374h80v374h235v-374h80v374h235v-374h71v-295z" />
    <glyph glyph-name="ugrave" unicode="&#x449;" horiz-adv-x="1003" 
d="M986 -145h-228v145h-708v524h235v-374h80v374h235v-374h80v374h235v-374h71v-295z" />
    <glyph glyph-name="uacute" unicode="&#xfa;" horiz-adv-x="727" 
d="M707 181c0 -51.333 -15 -92 -45 -122c-38.667 -39.333 -102.667 -59 -192 -59h-355v369h-105v155h357v-167c30 3.33301 60.667 5 92 5c91.333 0 158 -20.667 200 -62c32 -31.333 48 -71 48 -119zM454 185c0 14.667 -3.66699 26.333 -11 35c-12 14.667 -32 22 -60 22h-21
v-118h21c26 0 45 7 57 21c9.33301 10.667 14 24 14 40z" />
    <glyph glyph-name="uacute" unicode="&#x44a;" horiz-adv-x="727" 
d="M707 181c0 -51.333 -15 -92 -45 -122c-38.667 -39.333 -102.667 -59 -192 -59h-355v369h-105v155h357v-167c30 3.33301 60.667 5 92 5c91.333 0 158 -20.667 200 -62c32 -31.333 48 -71 48 -119zM454 185c0 14.667 -3.66699 26.333 -11 35c-12 14.667 -32 22 -60 22h-21
v-118h21c26 0 45 7 57 21c9.33301 10.667 14 24 14 40z" />
    <glyph glyph-name="ucircumflex" unicode="&#xfb;" horiz-adv-x="995" 
d="M945 0h-252v524h252v-524zM642 178c0 -49.333 -14.667 -88.667 -44 -118c-40 -40 -104.333 -60 -193 -60h-355v524h252v-167c31.333 3.33301 60 5 86 5c80 0 142.333 -15.833 187 -47.5s67 -77.167 67 -136.5zM389 184.999c0 14.667 -3.66699 26.333 -11 35
c-12 14.667 -32 22 -60 22h-21v-118h21c26 0 45 7 57 21c9.33301 10.667 14 24 14 40z" />
    <glyph glyph-name="ucircumflex" unicode="&#x44b;" horiz-adv-x="995" 
d="M945 0h-252v524h252v-524zM642 178c0 -49.333 -14.667 -88.667 -44 -118c-40 -40 -104.333 -60 -193 -60h-355v524h252v-167c31.333 3.33301 60 5 86 5c80 0 142.333 -15.833 187 -47.5s67 -77.167 67 -136.5zM389 184.999c0 14.667 -3.66699 26.333 -11 35
c-12 14.667 -32 22 -60 22h-21v-118h21c26 0 45 7 57 21c9.33301 10.667 14 24 14 40z" />
    <glyph glyph-name="udieresis" unicode="&#xfc;" horiz-adv-x="662" 
d="M642 178c0 -49.333 -14.667 -88.667 -44 -118c-40 -40 -104.333 -60 -193 -60h-355v524h252v-167c31.333 3.33301 60 5 86 5c80 0 142.333 -15.833 187 -47.5s67 -77.167 67 -136.5zM389 184.999c0 14.667 -3.66699 26.333 -11 35c-12 14.667 -32 22 -60 22h-21v-118h21
c26 0 45 7 57 21c9.33301 10.667 14 24 14 40z" />
    <glyph glyph-name="udieresis" unicode="&#x44c;" horiz-adv-x="662" 
d="M642 178c0 -49.333 -14.667 -88.667 -44 -118c-40 -40 -104.333 -60 -193 -60h-355v524h252v-167c31.333 3.33301 60 5 86 5c80 0 142.333 -15.833 187 -47.5s67 -77.167 67 -136.5zM389 184.999c0 14.667 -3.66699 26.333 -11 35c-12 14.667 -32 22 -60 22h-21v-118h21
c26 0 45 7 57 21c9.33301 10.667 14 24 14 40z" />
    <glyph glyph-name="yacute" unicode="&#xfd;" horiz-adv-x="562" 
d="M543 269c0 -80.667 -25.333 -146.331 -76 -196.998c-56.667 -56 -137.334 -84 -242.001 -84c-34 0 -66.167 2 -96.5 6s-64.166 12.667 -101.499 26v138c43.333 -23.333 88 -35 134 -35c35.333 0 64.666 8.66699 87.999 26s37 41 41 71h-189v94h189
c-8 29.333 -23.667 51.166 -47 65.499s-53 21.5 -89 21.5c-21.333 0 -42.333 -2.83301 -63 -8.5s-40.667 -13.834 -60 -24.501v136c24 8 49.333 14.667 76 20c40 8 80.333 12 121 12c102.667 0 182.334 -27 239.001 -81c50.667 -48.667 76 -110.667 76 -186z" />
    <glyph glyph-name="yacute" unicode="&#x44d;" horiz-adv-x="562" 
d="M543 269c0 -80.667 -25.333 -146.331 -76 -196.998c-56.667 -56 -137.334 -84 -242.001 -84c-34 0 -66.167 2 -96.5 6s-64.166 12.667 -101.499 26v138c43.333 -23.333 88 -35 134 -35c35.333 0 64.666 8.66699 87.999 26s37 41 41 71h-189v94h189
c-8 29.333 -23.667 51.166 -47 65.499s-53 21.5 -89 21.5c-21.333 0 -42.333 -2.83301 -63 -8.5s-40.667 -13.834 -60 -24.501v136c24 8 49.333 14.667 76 20c40 8 80.333 12 121 12c102.667 0 182.334 -27 239.001 -81c50.667 -48.667 76 -110.667 76 -186z" />
    <glyph glyph-name="thorn" unicode="&#xfe;" horiz-adv-x="989" 
d="M969 262c0 -84.667 -28.501 -151.5 -85.501 -200.5s-134.5 -73.5 -232.5 -73.5c-79.333 0 -144.5 17.667 -195.5 53s-82.833 85 -95.5 149h-58v-190h-252v524h252v-184h59c20 80 66 136 138 168c42.667 18.667 93.334 28 152.001 28c98 0 175.5 -24.5 232.5 -73.5
s85.5 -115.833 85.5 -200.5zM705.999 262c0 38.667 -2.33301 66 -7 82c-8 28 -24 42 -48 42s-40 -13.667 -48 -41c-4.66699 -16 -7 -43.667 -7 -83c0 -38.667 2.33301 -66 7 -82c8 -28 24 -42 48 -42s40 13.667 48 41c4.66699 16 7 43.667 7 83z" />
    <glyph glyph-name="thorn" unicode="&#x44e;" horiz-adv-x="989" 
d="M969 262c0 -84.667 -28.501 -151.5 -85.501 -200.5s-134.5 -73.5 -232.5 -73.5c-79.333 0 -144.5 17.667 -195.5 53s-82.833 85 -95.5 149h-58v-190h-252v524h252v-184h59c20 80 66 136 138 168c42.667 18.667 93.334 28 152.001 28c98 0 175.5 -24.5 232.5 -73.5
s85.5 -115.833 85.5 -200.5zM705.999 262c0 38.667 -2.33301 66 -7 82c-8 28 -24 42 -48 42s-40 -13.667 -48 -41c-4.66699 -16 -7 -43.667 -7 -83c0 -38.667 2.33301 -66 7 -82c8 -28 24 -42 48 -42s40 13.667 48 41c4.66699 16 7 43.667 7 83z" />
    <glyph glyph-name="ydieresis" unicode="&#xff;" horiz-adv-x="671" 
d="M621 0l-252.001 -0.000976562v174h-27l-63 -174h-259l106 208c-29.333 8.66699 -52.666 24.334 -69.999 47.001s-26 51 -26 85c0 48 12.667 87 38 117c38 44.667 101.333 67 190 67h363v-524zM373.999 281.999l0.000976562 118h-21c-24 0 -41.667 -7 -53 -21
c-8.66699 -10.667 -13 -24 -13 -40c0 -14 3.66699 -25.667 11 -35c11.333 -14.667 29.666 -22 54.999 -22h21z" />
    <glyph glyph-name="ydieresis" unicode="&#x44f;" horiz-adv-x="671" 
d="M621 0l-252.001 -0.000976562v174h-27l-63 -174h-259l106 208c-29.333 8.66699 -52.666 24.334 -69.999 47.001s-26 51 -26 85c0 48 12.667 87 38 117c38 44.667 101.333 67 190 67h363v-524zM373.999 281.999l0.000976562 118h-21c-24 0 -41.667 -7 -53 -21
c-8.66699 -10.667 -13 -24 -13 -40c0 -14 3.66699 -25.667 11 -35c11.333 -14.667 29.666 -22 54.999 -22h21z" />
    <glyph glyph-name="OE" unicode="&#x152;" horiz-adv-x="1216" 
d="M1196 249c0 -72 -22 -130 -66 -174c-50 -50 -121.333 -75 -214 -75h-419v258h-179v-258h-268v700h268v-242h179v242h268v-202h151c92.667 0 163.667 -24.667 213 -74c44.667 -44.667 67 -103 67 -175zM926 249c0 26 -7.33301 46.001 -22 60.001c-18.667 18 -49 27 -91 27
h-55v-174h54c38 0 66.5 7.16699 85.5 21.5s28.5 36.166 28.5 65.499z" />
    <glyph glyph-name="oe" unicode="&#x153;" horiz-adv-x="1004" 
d="M984 178c0 -49.333 -14.667 -88.667 -44 -118c-40 -40 -104.333 -60 -193 -60h-355v193h-90v-193h-252v524h252v-181h90v181h252v-167c31.333 3.33301 60 5 86 5c80 0 142.333 -15.833 187 -47.5s67 -77.167 67 -136.5zM731 184.999c0 14.667 -3.66699 26.333 -11 35
c-12 14.667 -32 22 -60 22h-21v-118h21c26 0 45 7 57 21c9.33301 10.667 14 24 14 40z" />
    <glyph glyph-name="Scaron" unicode="&#x160;" horiz-adv-x="1250" 
d="M1220 249c0 -72 -22.001 -130 -66.001 -174c-50 -50 -121.333 -75 -214 -75h-419v510h-130v-120c0 -94.667 -3.33301 -162.667 -10 -204c-10.667 -65.333 -32 -113.333 -64 -144c-38 -36 -95 -54 -171 -54c-43.333 0 -88.666 5.66699 -135.999 17v180
c0.666992 0 9 -1.16699 25 -3.5s27.333 -3.5 34 -3.5c36 0 60.667 22.333 74 67c9.33301 32 14 81.667 14 149c0 12 -0.166992 24 -0.5 36s-0.5 24.333 -0.5 37v10v223h633v-202h151c92.667 0 163.667 -24.667 213 -74c44.667 -44.667 67 -103 67 -175zM949.999 249
c0 26 -7.33301 46.001 -22 60.001c-18.667 18 -49 27 -91 27h-55v-174h54c38 0 66.5 7.16699 85.5 21.5s28.5 36.166 28.5 65.499z" />
    <glyph glyph-name="scaron" unicode="&#x161;" horiz-adv-x="1022" 
d="M1002 178c0 -49.333 -14.666 -88.666 -43.999 -117.999c-40 -40 -104.333 -60 -193 -60h-355v374h-86v-90c0 -117.333 -12.333 -196.333 -37 -237s-73.334 -61 -146.001 -61c-24.667 0 -47.667 1.33301 -69 4s-43.666 7.66699 -66.999 15l5 135
c11.333 -4.66699 24.666 -7 39.999 -7c22 0 36.667 11.667 44 35c5.33301 17.333 8 46.666 8 87.999v48v220h560v-167c31.333 3.33301 60 5 86 5c80 0 142.333 -15.833 187 -47.5s67 -77.167 67 -136.5zM749.001 185c0 14.667 -3.66699 26.333 -11 35
c-12 14.667 -32 22 -60 22h-21v-118h21c26 0 45 7 57 21c9.33301 10.667 14 24 14 40z" />
    <glyph glyph-name="Ydieresis" unicode="&#x178;" horiz-adv-x="694" 
d="M644 0h-183v-145h-228v145h-183v524h252v-374h90v374h252v-524z" />
    <glyph glyph-name="florin" unicode="&#x192;" horiz-adv-x="521" 
d="M482 750l-197 -156h-139l99 156h237zM486 374h-184v-374h-252v525h436v-151z" />
    <glyph glyph-name="circumflex" unicode="&#x2c6;" horiz-adv-x="528" 
d="M478 594h-144l-70 94l-70 -94h-144l114 156h200z" />
    <glyph glyph-name="tilde" unicode="&#x2dc;" horiz-adv-x="540" 
d="M490 735c0 -40 -12.166 -73.501 -36.499 -100.501s-57.833 -40.5 -100.5 -40.5c-16 0 -29.833 1.16699 -41.5 3.5s-24.167 5.83301 -37.5 10.5l-32 11c-7.33301 2.66699 -16.333 5.33398 -27 8.00098s-19.334 4 -26.001 4c-12.667 0 -23.167 -3.16699 -31.5 -9.5
s-12.5 -15.5 -12.5 -27.5h-95v16c0 42.667 12 76.667 36 102s55 38 93 38c15.333 0 29.333 -1.33301 42 -4l36 -10l29 -8c11.333 -2.66699 23.333 -5.66699 36 -9s22 -5 28 -5c26.667 0 41.667 12 45 36h95v-15z" />
    <glyph glyph-name="endash" unicode="&#x2013;" horiz-adv-x="600" 
d="M552 201h-504v162h504v-162z" />
    <glyph glyph-name="emdash" unicode="&#x2014;" horiz-adv-x="934" 
d="M934 195h-934v150h934v-150z" />
    <glyph glyph-name="quoteleft" unicode="&#x2018;" horiz-adv-x="316" 
d="M295 700l-62 -306h-212l115 306h159z" />
    <glyph glyph-name="quoteright" unicode="&#x2019;" horiz-adv-x="316" 
d="M295 700l-115 -306h-159l62 306h212z" />
    <glyph glyph-name="quotesinglbase" unicode="&#x201a;" horiz-adv-x="316" 
d="M295 183l-115 -306h-159l62 306h212z" />
    <glyph glyph-name="quotedblleft" unicode="&#x201c;" horiz-adv-x="558" 
d="M544 700l-62 -306h-213l115 306h160zM289 700l-62 -306h-213l116 306h159z" />
    <glyph glyph-name="quotedblright" unicode="&#x201d;" horiz-adv-x="558" 
d="M544 700l-116 -306h-159l62 306h213zM289 700l-115 -306h-160l62 306h213z" />
    <glyph glyph-name="quotedblbase" unicode="&#x201e;" horiz-adv-x="558" 
d="M544 183l-116 -306h-159l62 306h213zM289 183l-115 -306h-160l62 306h213z" />
    <glyph glyph-name="dagger" unicode="&#x2020;" horiz-adv-x="650" 
d="M612 365h-180v-520h-212v520h-182v163h182v172h212v-172h180v-163z" />
    <glyph glyph-name="daggerdbl" unicode="&#x2021;" horiz-adv-x="648" 
d="M610 25h-181v-182h-212v182h-179v162h179v175h-179v162h179v172h212v-172h181v-162h-181v-175h181v-162z" />
    <glyph glyph-name="bullet" unicode="&#x2022;" horiz-adv-x="504" 
d="M439 349c0 -51.333 -18.333 -95.333 -55 -132s-80.667 -55 -132 -55s-95.333 18.333 -132 55s-55 80.667 -55 132s18.333 95.333 55 132s80.667 55 132 55s95.333 -18.333 132 -55s55 -80.667 55 -132z" />
    <glyph glyph-name="ellipsis" unicode="&#x2026;" horiz-adv-x="1002" 
d="M944 0h-218v193h218v-193zM610 0h-218v193h218v-193zM276 0h-218v193h218v-193z" />
    <glyph glyph-name="perthousand" unicode="&#x2030;" horiz-adv-x="1394" 
d="M1369 196c0 -86.667 -26.667 -146.334 -80 -179.001c-31.333 -19.333 -71 -29 -119 -29c-65.333 0 -114.833 17.833 -148.5 53.5s-50.5 87.167 -50.5 154.5c0 86.667 26.667 146.334 80 179.001c31.333 19.333 71 29 119 29c65.333 0 114.833 -17.833 148.5 -53.5
s50.5 -87.167 50.5 -154.5zM936 196c0 -86.667 -26.667 -146.334 -80 -179.001c-31.333 -19.333 -71 -29 -119 -29c-65.333 0 -114.833 17.833 -148.5 53.5s-50.5 87.167 -50.5 154.5c0 86.667 26.667 146.334 80 179.001c31.333 19.333 71 29 119 29
c65.333 0 114.833 -17.833 148.5 -53.5s50.5 -87.167 50.5 -154.5zM769 729l-452 -760h-122l452 760h122zM423 502c0 -86.667 -26.667 -146.334 -80 -179.001c-31.333 -19.333 -71 -29 -119 -29c-65.333 0 -114.833 17.833 -148.5 53.5s-50.5 87.167 -50.5 154.5
c0 86.667 26.667 146.334 80 179.001c31.333 19.333 71 29 119 29c65.333 0 114.833 -17.833 148.5 -53.5s50.5 -87.167 50.5 -154.5zM1214 196c0 35.333 -2 59 -6 71c-6 18 -18.667 27 -38 27s-31.5 -7.33301 -36.5 -22s-7.5 -40 -7.5 -76c0 -35.333 2.5 -60.5 7.5 -75.5
s17.167 -22.5 36.5 -22.5s32 8.66699 38 26c4 12 6 36 6 72zM781 196c0 35.333 -2 59 -6 71c-6 18 -18.667 27 -38 27s-31.5 -7.33301 -36.5 -22s-7.5 -40 -7.5 -76c0 -35.333 2.5 -60.5 7.5 -75.5s17.167 -22.5 36.5 -22.5s32 8.66699 38 26c4 12 6 36 6 72zM268 502
c0 35.333 -2 59 -6 71c-6 18 -18.667 27 -38 27s-31.5 -7.33301 -36.5 -22s-7.5 -40 -7.5 -76c0 -35.333 2.5 -60.5 7.5 -75.5s17.167 -22.5 36.5 -22.5s32 8.66699 38 26c4 12 6 36 6 72z" />
    <glyph glyph-name="guilsinglleft" unicode="&#x2039;" horiz-adv-x="389" 
d="M343 54h-200l-118 216l118 216h200l-90 -216z" />
    <glyph glyph-name="guilsinglright" unicode="&#x203a;" horiz-adv-x="389" 
d="M364 270l-118 -216h-200l90 216l-90 216h200z" />
    <glyph glyph-name="trademark" unicode="&#x2122;" horiz-adv-x="1002" 
d="M981 283h-138v214l-68 -214h-117l-66 214l-2 -214h-138v417h189l75 -218l76 218h189v-417zM377 596h-98v-313h-150v313h-97v104h345v-104z" />
    <glyph glyph-name=".null" horiz-adv-x="0" 
 />
    <glyph glyph-name="nonmarkingreturn" horiz-adv-x="233" 
 />
  </font>
</defs>
</svg>
